<svg width="26" height="42" viewBox="0 0 26 42" fill="none" xmlns="http://www.w3.org/2000/svg">
<circle cx="13" cy="29" r="12.5" stroke="#FF1975"/>
<path d="M9.7 33V31.656L13.438 28.016C14.376 27.106 14.838 26.574 14.838 25.608C14.838 24.572 14.026 23.928 13.032 23.928C12.038 23.928 11.338 24.558 11.156 25.51L9.882 25.398C10.148 23.774 11.394 22.92 12.99 22.92C14.628 22.92 16.014 23.844 16.014 25.608C16.014 27.19 15.076 28.072 14.082 29.01L11.03 31.88V31.908H16.084V33H9.7Z" fill="white"/>
<path fill-rule="evenodd" clip-rule="evenodd" d="M13.0002 1.01999C12.841 1.01999 12.6884 1.0832 12.5759 1.19572C12.4634 1.30825 12.4002 1.46086 12.4002 1.61999V4.22639C12.4002 4.38552 12.4634 4.53813 12.5759 4.65065C12.6884 4.76317 12.841 4.82639 13.0002 4.82639C13.1593 4.82639 13.3119 4.76317 13.4244 4.65065C13.537 4.53813 13.6002 4.38552 13.6002 4.22639V2.24639C15.1131 2.38093 16.5371 3.0196 17.6437 4.06C18.7504 5.10041 19.4756 6.48228 19.7031 7.98405C19.9307 9.48583 19.6474 11.0205 18.8986 12.342C18.1498 13.6636 16.979 14.6954 15.5738 15.2721C14.1686 15.8488 12.6105 15.9369 11.1492 15.5223C9.68797 15.1078 8.40824 14.2146 7.51522 12.9859C6.62221 11.7572 6.16763 10.2643 6.22438 8.74644C6.28112 7.22858 6.84591 5.77375 7.82817 4.61519C7.88172 4.55552 7.92276 4.48572 7.94887 4.40991C7.97498 4.33411 7.98564 4.25385 7.98021 4.17386C7.97478 4.09387 7.95338 4.01578 7.91726 3.9442C7.88114 3.87262 7.83105 3.80901 7.76993 3.75712C7.70882 3.70523 7.63792 3.66611 7.56144 3.64208C7.48495 3.61805 7.40442 3.60959 7.32461 3.6172C7.2448 3.62481 7.16732 3.64834 7.09676 3.6864C7.0262 3.72446 6.96398 3.77628 6.91377 3.83879C5.73788 5.22544 5.07074 6.97207 5.0228 8.78955C4.97485 10.607 5.54897 12.3864 6.65012 13.8331C7.75127 15.2798 9.31343 16.3072 11.078 16.7451C12.8426 17.183 14.7038 17.0052 16.3536 16.2411C18.0034 15.477 19.3428 14.1725 20.1501 12.5435C20.9575 10.9145 21.1843 9.05859 20.7931 7.28305C20.402 5.50752 19.4162 3.91879 17.999 2.77985C16.5819 1.6409 14.8183 1.02002 13.0002 1.01999ZM12.0882 9.69599L9.06897 5.48759C9.02878 5.42982 9.01017 5.35976 9.0164 5.28965C9.02264 5.21955 9.05333 5.15387 9.10309 5.10411C9.15286 5.05434 9.21854 5.02366 9.28864 5.01742C9.35874 5.01118 9.4288 5.02979 9.48657 5.06999L13.6974 8.08799C13.8329 8.18553 13.9455 8.31136 14.0276 8.45675C14.1096 8.60214 14.1591 8.76363 14.1725 8.93003C14.186 9.09643 14.1631 9.26377 14.1055 9.42045C14.0479 9.57714 13.9569 9.71943 13.8389 9.83748C13.7208 9.95553 13.5785 10.0465 13.4218 10.1041C13.2652 10.1617 13.0978 10.1846 12.9314 10.1711C12.765 10.1577 12.6035 10.1082 12.4581 10.0262C12.3127 9.94414 12.1869 9.83147 12.0894 9.69599H12.0882Z" fill="#FF1975"/>
</svg>
