<svg width="24" height="24" viewBox="0 0 24 24" fill="none" xmlns="http://www.w3.org/2000/svg">
<path d="M5.07 4.49999L5.4075 5.16749L5.82 5.99999H9V9.74999H3V4.49999H5.07ZM5.535 2.99999H2.25C2.05109 2.99999 1.86032 3.07901 1.71967 3.21966C1.57902 3.36031 1.5 3.55108 1.5 3.74999V10.5C1.5 10.6989 1.57902 10.8897 1.71967 11.0303C1.86032 11.171 2.05109 11.25 2.25 11.25H9.75C9.94891 11.25 10.1397 11.171 10.2803 11.0303C10.421 10.8897 10.5 10.6989 10.5 10.5V5.24999C10.5 5.05108 10.421 4.86031 10.2803 4.71966C10.1397 4.57901 9.94891 4.49999 9.75 4.49999H6.75L6.21 3.41249C6.1471 3.28766 6.05058 3.18289 5.93131 3.11001C5.81204 3.03712 5.67477 2.99901 5.535 2.99999ZM17.07 4.49999L17.4075 5.16749L17.82 5.99999H21V9.74999H15V4.49999H17.07ZM17.535 2.99999H14.25C14.0511 2.99999 13.8603 3.07901 13.7197 3.21966C13.579 3.36031 13.5 3.55108 13.5 3.74999V10.5C13.5 10.6989 13.579 10.8897 13.7197 11.0303C13.8603 11.171 14.0511 11.25 14.25 11.25H21.75C21.9489 11.25 22.1397 11.171 22.2803 11.0303C22.421 10.8897 22.5 10.6989 22.5 10.5V5.24999C22.5 5.05108 22.421 4.86031 22.2803 4.71966C22.1397 4.57901 21.9489 4.49999 21.75 4.49999H18.75L18.21 3.41249C18.1471 3.28766 18.0506 3.18289 17.9313 3.11001C17.812 3.03712 17.6748 2.99901 17.535 2.99999ZM5.07 14.25L5.4075 14.9175L5.82 15.75H9V19.5H3V14.25H5.07ZM5.535 12.75H2.25C2.05109 12.75 1.86032 12.829 1.71967 12.9697C1.57902 13.1103 1.5 13.3011 1.5 13.5V20.25C1.5 20.4489 1.57902 20.6397 1.71967 20.7803C1.86032 20.921 2.05109 21 2.25 21H9.75C9.94891 21 10.1397 20.921 10.2803 20.7803C10.421 20.6397 10.5 20.4489 10.5 20.25V15C10.5 14.8011 10.421 14.6103 10.2803 14.4697C10.1397 14.329 9.94891 14.25 9.75 14.25H6.75L6.21 13.1625C6.1471 13.0377 6.05058 12.9329 5.93131 12.86C5.81204 12.7871 5.67477 12.749 5.535 12.75ZM17.07 14.25L17.4075 14.9175L17.82 15.75H21V19.5H15V14.25H17.07ZM17.535 12.75H14.25C14.0511 12.75 13.8603 12.829 13.7197 12.9697C13.579 13.1103 13.5 13.3011 13.5 13.5V20.25C13.5 20.4489 13.579 20.6397 13.7197 20.7803C13.8603 20.921 14.0511 21 14.25 21H21.75C21.9489 21 22.1397 20.921 22.2803 20.7803C22.421 20.6397 22.5 20.4489 22.5 20.25V15C22.5 14.8011 22.421 14.6103 22.2803 14.4697C22.1397 14.329 21.9489 14.25 21.75 14.25H18.75L18.21 13.1625C18.1471 13.0377 18.0506 12.9329 17.9313 12.86C17.812 12.7871 17.6748 12.749 17.535 12.75Z" fill="white" fill-opacity="0.56"/>
</svg>
