<svg width="38" height="38" viewBox="0 0 38 38" fill="none" xmlns="http://www.w3.org/2000/svg">
<path d="M7.48366 15.8683C5.54798 15.4295 3.81897 14.3457 2.58033 12.7948C1.34169 11.244 0.667008 9.31812 0.666992 7.33332V5.24999C0.666992 3.63999 1.97366 2.33332 3.58366 2.33332H7.52366C7.91699 1.35666 8.87366 0.666656 9.99032 0.666656H28.0103C29.127 0.666656 30.0837 1.35666 30.477 2.33332H34.6253C36.2353 2.33332 37.542 3.63999 37.542 5.24999V7.33332C37.5418 9.35589 36.8413 11.316 35.5594 12.8805C34.2775 14.4449 32.4934 15.5172 30.5103 15.915C30.1634 17.9933 29.2609 19.9392 27.8983 21.5464C26.5357 23.1537 24.7639 24.3626 22.7703 25.045L23.1553 30.05C23.1734 30.0681 23.1923 30.0853 23.212 30.1017C23.3437 30.21 23.717 30.44 24.6053 30.5717C26.002 30.7783 27.3337 31.9217 27.3337 33.5833V34.8333H31.0837C31.4152 34.8333 31.7331 34.965 31.9675 35.1994C32.202 35.4339 32.3337 35.7518 32.3337 36.0833C32.3337 36.4148 32.202 36.7328 31.9675 36.9672C31.7331 37.2016 31.4152 37.3333 31.0837 37.3333H6.91699C6.58547 37.3333 6.26753 37.2016 6.03311 36.9672C5.79869 36.7328 5.66699 36.4148 5.66699 36.0833C5.66699 35.7518 5.79869 35.4339 6.03311 35.1994C6.26753 34.965 6.58547 34.8333 6.91699 34.8333H10.667V33.5833C10.667 31.9233 12.0003 30.7783 13.3953 30.5717C14.2837 30.4383 14.657 30.21 14.7887 30.1017C14.8083 30.0853 14.8272 30.0681 14.8453 30.05L15.2303 25.045C13.2294 24.3594 11.452 23.1435 10.0877 21.5271C8.72344 19.9107 7.82344 17.9544 7.48366 15.8667V15.8683ZM9.83366 3.32332V14C9.83366 16.4311 10.7994 18.7627 12.5185 20.4818C14.2376 22.2009 16.5692 23.1667 19.0003 23.1667C21.4315 23.1667 23.7631 22.2009 25.4821 20.4818C27.2012 18.7627 28.167 16.4311 28.167 14V3.32332C28.167 3.28177 28.1505 3.24192 28.1211 3.21254C28.0917 3.18316 28.0519 3.16666 28.0103 3.16666H9.99032C9.94877 3.16666 9.90893 3.18316 9.87955 3.21254C9.85016 3.24192 9.83366 3.28177 9.83366 3.32332ZM17.6953 25.595L17.337 30.25L17.3353 30.285L17.3303 30.3567C17.3231 30.439 17.3109 30.5208 17.2937 30.6017C17.2103 30.9967 16.9703 31.5467 16.372 32.035C15.792 32.5117 14.9503 32.8683 13.762 33.0433C13.5891 33.0668 13.4286 33.1465 13.3053 33.27C13.2625 33.3103 13.2282 33.3588 13.2044 33.4126C13.1807 33.4665 13.1679 33.5245 13.167 33.5833V34.8333H24.8337V33.5833C24.8327 33.5245 24.82 33.4665 24.7962 33.4126C24.7725 33.3588 24.7382 33.3103 24.6953 33.27C24.572 33.1465 24.4116 33.0668 24.2387 33.0433C23.0503 32.8683 22.2087 32.51 21.627 32.0367C21.0303 31.5467 20.7903 30.9967 20.707 30.6033C20.6848 30.499 20.6709 30.3931 20.6653 30.2867L20.6637 30.25L20.3053 25.595C19.438 25.6917 18.5626 25.6917 17.6953 25.595ZM30.667 13.2967C31.9358 12.8974 33.0441 12.1038 33.8309 11.0314C34.6177 9.9589 35.042 8.66345 35.042 7.33332V5.24999C35.042 5.13948 34.9981 5.0335 34.92 4.95536C34.8418 4.87722 34.7358 4.83332 34.6253 4.83332H30.667V13.2967ZM7.33366 4.83332H3.58366C3.47315 4.83332 3.36717 4.87722 3.28903 4.95536C3.21089 5.0335 3.16699 5.13948 3.16699 5.24999V7.33332C3.16697 8.62609 3.56762 9.88709 4.31379 10.9428C5.05997 11.9985 6.11499 12.7969 7.33366 13.2283V4.83332Z" fill="white"/>
</svg>
