<svg width="15" height="15" viewBox="0 0 15 15" fill="none" xmlns="http://www.w3.org/2000/svg">
<path d="M11.3535 11.431C8.74145 14.0431 4.86214 14.4828 2.35352 12.569C2.50869 12.7759 2.66386 12.9828 2.87076 13.1638C5.35352 15.6466 9.64662 15.3621 12.4656 12.5173C15.2845 9.69828 15.569 5.37932 13.1121 2.92242C12.9311 2.74139 12.7242 2.56035 12.5173 2.40518C14.4052 4.93966 13.9656 8.81897 11.3535 11.431Z" fill="#F4BF1A"/>
<path d="M11.9998 1.83622C14.4826 4.31898 14.1981 8.61208 11.3533 11.431C8.50845 14.25 4.21535 14.5345 1.75845 12.0776C-0.698446 9.6207 -0.439825 5.30173 2.405 2.48277C5.24983 -0.336196 9.51707 -0.646541 11.9998 1.83622Z" fill="#FFD949"/>
<path d="M5.97422 12.7241C4.62939 12.7241 3.38801 12.2328 2.48284 11.3535C0.413875 9.28449 0.698358 5.63794 3.12939 3.20691C4.4225 1.9138 6.10353 1.18967 7.78456 1.18967C9.12939 1.18967 10.3708 1.68105 11.2759 2.56036C13.3449 4.62932 13.0604 8.27587 10.6294 10.7069C9.33629 11.9741 7.65525 12.7241 5.97422 12.7241Z" fill="#F4BF1A"/>
<path d="M11.5342 11.25L12.6462 12.3621C12.7756 12.2328 12.879 12.1035 12.9825 11.9742L11.8704 10.8621C11.7669 10.9914 11.6635 11.1207 11.5342 11.25Z" fill="#DCA815"/>
<path d="M10.5771 12.1034L11.6892 13.2155C11.8185 13.1121 11.9478 13.0086 12.0771 12.8793L10.9651 11.7672C10.8358 11.8966 10.7065 12 10.5771 12.1034Z" fill="#DCA815"/>
<path d="M12.3359 10.2155L13.448 11.3276C13.5515 11.1724 13.6549 11.0431 13.7325 10.8879L12.6463 9.80173C12.5428 9.93104 12.4394 10.0862 12.3359 10.2155Z" fill="#DCA815"/>
<path d="M13.0088 9.05173L14.1209 10.1638C14.1984 9.98276 14.276 9.82759 14.3278 9.64655L13.2157 8.53448C13.164 8.71552 13.0864 8.89655 13.0088 9.05173Z" fill="#DCA815"/>
<path d="M9.46582 12.8276L10.5779 13.9397C10.7331 13.8621 10.8882 13.7586 11.0434 13.681L9.93134 12.569C9.77617 12.6724 9.62099 12.75 9.46582 12.8276Z" fill="#DCA815"/>
<path d="M8.19824 13.3966L9.31031 14.5086C9.49135 14.4569 9.67238 14.3793 9.85341 14.3017L8.74135 13.1897C8.56031 13.2673 8.37928 13.319 8.19824 13.3966Z" fill="#DCA815"/>
<path d="M6.3623 13.7328L7.47437 14.8448C7.70713 14.8448 7.91403 14.819 8.14679 14.7673L7.03472 13.6552C6.80196 13.7069 6.5692 13.7328 6.3623 13.7328Z" fill="#DCA815"/>
<path d="M4.31836 13.5259L5.43043 14.6379C5.71491 14.7155 6.02526 14.7673 6.3356 14.819L5.22353 13.7069C4.91319 13.6811 4.60284 13.6035 4.31836 13.5259Z" fill="#DCA815"/>
<path d="M13.5518 7.39655L14.6638 8.50862C14.7156 8.30172 14.7414 8.09483 14.7673 7.86207L13.6552 6.75C13.6293 6.98276 13.5776 7.18966 13.5518 7.39655Z" fill="#DCA815"/>
<path d="M14.7673 6.80175C14.7414 6.51726 14.7156 6.25864 14.6638 5.97416L13.5518 4.86209C13.6035 5.14657 13.6552 5.40519 13.6552 5.68968L14.7673 6.80175Z" fill="#DCA815"/>
<g clip-path="url(#clip0_291_448)">
<path d="M5.125 8.13325C5.182 8.84875 5.7475 9.406 6.7615 9.472V10H7.2115V9.46825C8.2615 9.39475 8.875 8.83375 8.875 8.01925C8.875 7.279 8.4055 6.89725 7.56625 6.69925L7.2115 6.61525V5.1775C7.6615 5.2285 7.948 5.4745 8.017 5.815H8.806C8.749 5.12575 8.158 4.5865 7.2115 4.528V4H6.7615V4.53925C5.86525 4.627 5.254 5.16625 5.254 5.929C5.254 6.604 5.7085 7.033 6.46375 7.20925L6.7615 7.28275V8.80825C6.30025 8.7385 5.995 8.48575 5.926 8.13325H5.125ZM6.75775 6.50875C6.31525 6.406 6.07525 6.19675 6.07525 5.88175C6.07525 5.52925 6.334 5.26525 6.7615 5.188V6.508L6.75775 6.50875ZM7.27675 7.4035C7.8145 7.528 8.06275 7.72975 8.06275 8.086C8.06275 8.4925 7.75375 8.7715 7.2115 8.8225V7.3885L7.27675 7.4035Z" fill="#E7CD8A"/>
<path d="M7 12.25C5.60761 12.25 4.27226 11.6969 3.28769 10.7123C2.30312 9.72774 1.75 8.39239 1.75 7C1.75 5.60761 2.30312 4.27226 3.28769 3.28769C4.27226 2.30312 5.60761 1.75 7 1.75C8.39239 1.75 9.72774 2.30312 10.7123 3.28769C11.6969 4.27226 12.25 5.60761 12.25 7C12.25 8.39239 11.6969 9.72774 10.7123 10.7123C9.72774 11.6969 8.39239 12.25 7 12.25ZM7 13C8.5913 13 10.1174 12.3679 11.2426 11.2426C12.3679 10.1174 13 8.5913 13 7C13 5.4087 12.3679 3.88258 11.2426 2.75736C10.1174 1.63214 8.5913 1 7 1C5.4087 1 3.88258 1.63214 2.75736 2.75736C1.63214 3.88258 1 5.4087 1 7C1 8.5913 1.63214 10.1174 2.75736 11.2426C3.88258 12.3679 5.4087 13 7 13Z" fill="#E7CD8A"/>
<path d="M7 11.125C5.90598 11.125 4.85677 10.6904 4.08318 9.91682C3.3096 9.14323 2.875 8.09402 2.875 7C2.875 5.90598 3.3096 4.85677 4.08318 4.08318C4.85677 3.3096 5.90598 2.875 7 2.875C8.09402 2.875 9.14323 3.3096 9.91682 4.08318C10.6904 4.85677 11.125 5.90598 11.125 7C11.125 8.09402 10.6904 9.14323 9.91682 9.91682C9.14323 10.6904 8.09402 11.125 7 11.125ZM7 11.5C7.59095 11.5 8.17611 11.3836 8.72208 11.1575C9.26804 10.9313 9.76412 10.5998 10.182 10.182C10.5998 9.76412 10.9313 9.26804 11.1575 8.72208C11.3836 8.17611 11.5 7.59095 11.5 7C11.5 6.40905 11.3836 5.82389 11.1575 5.27792C10.9313 4.73196 10.5998 4.23588 10.182 3.81802C9.76412 3.40016 9.26804 3.06869 8.72208 2.84254C8.17611 2.6164 7.59095 2.5 7 2.5C5.80653 2.5 4.66193 2.97411 3.81802 3.81802C2.97411 4.66193 2.5 5.80653 2.5 7C2.5 8.19347 2.97411 9.33807 3.81802 10.182C4.66193 11.0259 5.80653 11.5 7 11.5Z" fill="#E7CD8A"/>
</g>
<defs>
<clipPath id="clip0_291_448">
<rect width="12" height="12" fill="white" transform="translate(1 1)"/>
</clipPath>
</defs>
</svg>
