<svg width="41" height="41" viewBox="0 0 41 41" fill="none" xmlns="http://www.w3.org/2000/svg">
<path d="M29.5328 1.28125L22.2937 12.1078H25.8812L33.9531 1.28125H29.5328Z" fill="#428BC1"/>
<path d="M25.8813 1.28125L18.7063 12.1078H22.2938L29.5329 1.28125H25.8813Z" fill="#E8E8E8"/>
<path d="M22.2937 1.28125L15.1187 12.1078H18.7062L25.8812 1.28125H22.2937Z" fill="#ED4C5C"/>
<path d="M20.5001 39.7188C27.7885 39.7188 33.697 33.8103 33.697 26.5219C33.697 19.2335 27.7885 13.325 20.5001 13.325C13.2117 13.325 7.30322 19.2335 7.30322 26.5219C7.30322 33.8103 13.2117 39.7188 20.5001 39.7188Z" fill="#FFCE31"/>
<path d="M13.9018 9.67346C13.5814 9.67346 13.3252 9.92971 13.3252 10.25V15.6313C13.3252 15.9516 13.5814 16.2078 13.9018 16.2078H27.0986C27.4189 16.2078 27.6752 15.9516 27.6752 15.6313V10.25C27.6752 9.92971 27.4189 9.67346 27.0986 9.67346H13.9018ZM26.5221 13.9016C26.5221 14.2219 26.2658 14.4781 25.9455 14.4781H15.1189C14.7986 14.4781 14.5424 14.2219 14.5424 13.9016V11.4672C14.5424 11.1469 14.7986 10.8906 15.1189 10.8906H25.9455C26.2658 10.8906 26.5221 11.1469 26.5221 11.4672V13.9016Z" fill="#FFCE31"/>
<path opacity="0.5" d="M9.16089 28.0594C9.16089 20.8844 14.6703 15.0547 21.7171 14.5422C21.3968 14.5422 21.0125 14.4781 20.6921 14.4781C13.9656 14.4781 8.52026 19.9235 8.52026 26.7141C8.52026 28.7 9.03276 30.6219 9.86558 32.2875C9.41714 30.9422 9.16089 29.5328 9.16089 28.0594Z" fill="#89664C"/>
<path opacity="0.33" d="M25.5609 36.7078C31.5187 32.736 33.3125 24.9844 29.8531 18.9625L30.4296 19.7313C34.1453 25.2406 32.6078 32.736 27.0343 36.5156C25.3687 37.6688 23.5109 38.3094 21.6531 38.5016C23.0625 38.1172 24.3437 37.5406 25.5609 36.7078Z" fill="white"/>
<path d="M15.1188 12.1078H18.7063L11.4672 1.28125H7.04688L15.1188 12.1078Z" fill="#ED4C5C"/>
<path d="M18.7063 12.1078H22.2938L15.1188 1.28125H11.4673L18.7063 12.1078Z" fill="#E8E8E8"/>
<path opacity="0.5" d="M21.0765 3.07501L19.2827 5.76564L23.5108 12.1078H25.8812L26.5218 11.2109L21.0765 3.07501Z" fill="#3E4347"/>
<path d="M22.2937 12.1078H25.8812L18.7062 1.28125H15.1187L22.2937 12.1078Z" fill="#428BC1"/>
<path opacity="0.5" d="M17.1687 22.55V23.1906C17.8093 23.1906 18.3859 23.0625 18.9625 22.8062V21.9094C18.45 22.2937 17.8734 22.4859 17.1687 22.55ZM21.3968 18.3859H21.9734V32.2234H21.3968V18.3859ZM23.8312 32.8V34.5937H17.1687V35.2344H24.4078V32.8H23.8312Z" fill="#89664C"/>
<path opacity="0.33" d="M21.9734 32.2234H23.7671V32.8H21.9734V32.2234ZM19.6031 18.386H21.3968V17.8094H18.9625C18.9625 19.1547 17.8734 20.2438 16.5281 20.2438V22.6141C16.7203 22.6141 16.9125 22.6141 17.1046 22.55V20.7563C18.514 20.8203 19.6031 19.7313 19.6031 18.386ZM19.6031 32.8V22.55C19.4109 22.6781 19.2187 22.7422 19.0265 22.8703V32.2234H16.5921V34.5938H17.1687V32.8H19.6031Z" fill="white"/>
</svg>
