<svg width="40" height="40" viewBox="0 0 40 40" fill="none" xmlns="http://www.w3.org/2000/svg">
<path opacity="0.5" d="M33.6415 29.5834C33.973 29.5834 34.291 29.4517 34.5254 29.2172C34.7598 28.9828 34.8915 28.6649 34.8915 28.3334C34.8915 28.0018 34.7598 27.6839 34.5254 27.4495C34.291 27.215 33.973 27.0834 33.6415 27.0834V29.5834ZM22.4665 35.4384C22.3668 35.7515 22.3944 36.0913 22.5434 36.3843C22.6924 36.6772 22.9508 36.8997 23.2626 37.0036C23.5744 37.1074 23.9145 37.0843 24.2094 36.9392C24.5043 36.7941 24.7302 36.5388 24.8382 36.2284L22.4665 35.4384ZM6.6632 27.0834C6.33168 27.0834 6.01373 27.215 5.77931 27.4495C5.54489 27.6839 5.4132 28.0018 5.4132 28.3334C5.4132 28.6649 5.54489 28.9828 5.77931 29.2172C6.01373 29.4517 6.33168 29.5834 6.6632 29.5834V27.0834ZM15.4649 36.2284C15.5728 36.5388 15.7987 36.7941 16.0936 36.9392C16.3885 37.0843 16.7287 37.1074 17.0405 37.0036C17.3523 36.8997 17.6107 36.6772 17.7597 36.3843C17.9086 36.0913 17.9363 35.7515 17.8365 35.4384L15.4649 36.2284ZM9.25986 9.10002C9.2174 8.94145 9.14412 8.79279 9.04421 8.66254C8.9443 8.53229 8.81972 8.42299 8.67756 8.34089C8.53541 8.25879 8.37848 8.20549 8.21573 8.18403C8.05298 8.16258 7.8876 8.17339 7.72903 8.21585C7.57046 8.25831 7.4218 8.33159 7.29155 8.4315C7.1613 8.53141 7.052 8.656 6.9699 8.79815C6.8878 8.9403 6.8345 9.09723 6.81304 9.25998C6.79159 9.42273 6.8024 9.58812 6.84486 9.74669L9.25986 9.10002ZM2.71153 19.98C2.57463 20.0706 2.45691 20.1873 2.36511 20.3234C2.2733 20.4595 2.2092 20.6124 2.17647 20.7733C2.14373 20.9341 2.14301 21.0999 2.17433 21.261C2.20566 21.4222 2.26842 21.5756 2.35903 21.7125C2.44964 21.8494 2.56633 21.9671 2.70244 22.0589C2.83854 22.1508 2.9914 22.2148 3.15227 22.2476C3.31315 22.2803 3.4789 22.281 3.64006 22.2497C3.80122 22.2184 3.95463 22.1556 4.09153 22.065L2.71153 19.98ZM33.2232 9.74669C33.2657 9.58812 33.2765 9.42273 33.255 9.25998C33.2336 9.09723 33.1803 8.9403 33.0982 8.79815C33.0161 8.656 32.9068 8.53141 32.7765 8.4315C32.6463 8.33159 32.4976 8.25831 32.339 8.21585C32.0188 8.1301 31.6776 8.17508 31.3905 8.34089C31.2483 8.42299 31.1238 8.53229 31.0238 8.66254C30.9239 8.79279 30.8507 8.94145 30.8082 9.10002L33.2232 9.74669ZM35.9765 22.065C36.253 22.248 36.5909 22.3137 36.9158 22.2476C37.2407 22.1815 37.526 21.989 37.709 21.7125C37.892 21.436 37.9577 21.0982 37.8916 20.7733C37.8255 20.4484 37.633 20.163 37.3565 19.98L35.9765 22.065ZM26.8165 6.39335C26.9532 6.29983 27.0699 6.18009 27.1599 6.04107C27.2499 5.90206 27.3114 5.74655 27.3408 5.58358C27.3702 5.4206 27.3669 5.25341 27.3311 5.09172C27.2953 4.93003 27.2278 4.77705 27.1324 4.64169C27.037 4.50632 26.9156 4.39126 26.7754 4.30319C26.6352 4.21512 26.4788 4.15579 26.3155 4.12865C26.1521 4.10152 25.985 4.10711 25.8238 4.14511C25.6626 4.18312 25.5106 4.25277 25.3765 4.35002L26.8165 6.39335ZM14.3599 3.99502C14.2283 3.89213 14.0774 3.81665 13.9162 3.77305C13.7549 3.72945 13.5866 3.7186 13.4211 3.74115C13.2556 3.7637 13.0963 3.81919 12.9526 3.90434C12.8089 3.9895 12.6837 4.10259 12.5845 4.23693C12.4852 4.37127 12.4139 4.52414 12.3747 4.68651C12.3356 4.84888 12.3293 5.01746 12.3564 5.18228C12.3835 5.3471 12.4433 5.50483 12.5323 5.64614C12.6214 5.78745 12.7379 5.90948 12.8749 6.00502L14.3582 3.99502H14.3599ZM24.1532 17.7917C24.0015 17.8545 23.8637 17.9466 23.7476 18.0627C23.6315 18.1787 23.5394 18.3165 23.4766 18.4682C23.4138 18.6199 23.3814 18.7824 23.3814 18.9466C23.3814 19.1108 23.4137 19.2733 23.4765 19.425C23.5393 19.5767 23.6314 19.7145 23.7475 19.8306C23.8636 19.9467 24.0014 20.0388 24.1531 20.1016C24.3047 20.1645 24.4673 20.1968 24.6315 20.1968C24.7956 20.1968 24.9582 20.1645 25.1099 20.1017L24.1532 17.7917ZM18.7299 15.43C18.7299 15.7615 18.8616 16.0795 19.096 16.3139C19.3304 16.5483 19.6483 16.68 19.9799 16.68C20.3114 16.68 20.6293 16.5483 20.8637 16.3139C21.0982 16.0795 21.2299 15.7615 21.2299 15.43H18.7299ZM23.8132 23.825C23.5962 23.5744 23.2885 23.4202 22.9578 23.3965C22.6271 23.3727 22.3005 23.4813 22.0499 23.6984C21.7992 23.9154 21.6451 24.2231 21.6213 24.5538C21.5976 24.8845 21.7062 25.2111 21.9232 25.4617L23.8132 23.825ZM18.0765 25.415C18.1793 25.286 18.2556 25.138 18.3009 24.9794C18.3462 24.8208 18.3596 24.6548 18.3405 24.491C18.3213 24.3272 18.27 24.1688 18.1893 24.0249C18.1087 23.881 18.0004 23.7545 17.8706 23.6527C17.7409 23.5509 17.5922 23.4757 17.4333 23.4316C17.2744 23.3875 17.1083 23.3753 16.9446 23.3956C16.781 23.416 16.6229 23.4685 16.4797 23.5502C16.3364 23.6319 16.2107 23.7412 16.1099 23.8717L18.0765 25.415ZM14.8432 20.0984C14.9947 20.1639 15.1578 20.1988 15.3229 20.201C15.488 20.2032 15.6518 20.1727 15.8051 20.1112C15.9583 20.0497 16.0978 19.9584 16.2156 19.8427C16.3334 19.727 16.4271 19.5891 16.4912 19.437C16.5554 19.2848 16.5888 19.1215 16.5895 18.9564C16.5902 18.7913 16.5582 18.6277 16.4953 18.475C16.4324 18.3223 16.3399 18.1836 16.2231 18.0669C16.1063 17.9502 15.9676 17.8578 15.8149 17.795L14.8432 20.0984ZM33.6415 27.0834H30.9499V29.5834H33.6415V27.0834ZM23.4465 32.4967L22.4665 35.4384L24.8382 36.2284L25.8182 33.2867L23.4465 32.4967ZM30.9499 27.0834C29.8199 27.0834 28.8665 27.0817 28.0932 27.17C27.2849 27.2617 26.5432 27.4634 25.8715 27.9484L27.3349 29.9767C27.5349 29.8317 27.8082 29.7184 28.3765 29.6534C28.9765 29.5867 29.7632 29.5834 30.9499 29.5834V27.0834ZM25.8165 33.2867C26.1932 32.16 26.4432 31.4134 26.6999 30.865C26.9399 30.345 27.1365 30.12 27.3349 29.9767L25.8715 27.9484C25.1982 28.435 24.7749 29.0734 24.4315 29.8117C24.1032 30.52 23.8032 31.425 23.4465 32.4967L25.8182 33.2867H25.8165ZM6.66486 29.5834H9.35653V27.0834H6.6632V29.5834H6.66486ZM14.4882 33.2867L15.4649 36.2284L17.8382 35.4384L16.8599 32.4967L14.4882 33.2867ZM9.35653 29.5834C10.5449 29.5834 11.3282 29.585 11.9299 29.6534C12.4965 29.72 12.7715 29.8317 12.9715 29.9767L14.4349 27.9484C13.7615 27.465 13.0199 27.2617 12.2132 27.17C11.4382 27.0817 10.4849 27.0834 9.35653 27.0834V29.5834ZM16.8599 32.4967C16.5015 31.425 16.2032 30.52 15.8749 29.8117C15.5315 29.075 15.1082 28.435 14.4349 27.9484L12.9715 29.9767C13.1715 30.12 13.3649 30.3433 13.6065 30.865C13.8615 31.415 14.1115 32.16 14.4882 33.2867L16.8599 32.4967ZM6.84486 9.74669L7.54153 12.3484L9.9582 11.7017L9.25986 9.10002L6.84486 9.74669ZM5.29653 18.2717L2.7132 19.98L4.09153 22.065L6.67486 20.3567L5.29653 18.2717ZM7.54153 12.3484C7.8482 13.4967 8.04986 14.2567 8.13986 14.855C8.2232 15.4217 8.18486 15.7184 8.0982 15.9484L10.4365 16.835C10.7299 16.0584 10.7315 15.2917 10.6115 14.4867C10.4965 13.715 10.2482 12.795 9.95653 11.7034L7.54153 12.3484ZM6.67486 20.3567C7.6182 19.7334 8.4132 19.21 9.01153 18.7084C9.63486 18.1867 10.1415 17.61 10.4365 16.835L8.0982 15.9484C8.01153 16.1784 7.84486 16.425 7.40486 16.7934C6.94153 17.1817 6.2882 17.6167 5.29653 18.2717L6.67486 20.3567ZM30.8082 9.10002L30.1115 11.7017L32.5265 12.3484L33.2232 9.74669L30.8082 9.10002ZM33.3932 20.3567L35.9765 22.065L37.3565 19.98L34.7715 18.2717L33.3932 20.3567ZM30.1115 11.7017C29.8199 12.795 29.5715 13.715 29.4565 14.4867C29.3365 15.2917 29.3399 16.06 29.6315 16.835L31.9699 15.9484C31.8832 15.7184 31.8449 15.4234 31.9282 14.855C32.0182 14.255 32.2199 13.4967 32.5265 12.3484L30.1115 11.7017ZM34.7715 18.2717C33.7815 17.6167 33.1265 17.1817 32.6632 16.7934C32.2232 16.4267 32.0582 16.1784 31.9699 15.9484L29.6332 16.835C29.9265 17.61 30.4332 18.1867 31.0565 18.7084C31.6549 19.21 32.4499 19.735 33.3932 20.3584L34.7715 18.2717ZM25.3765 4.35002L23.1765 5.90335L24.6165 7.94502L26.8165 6.39335L25.3765 4.35002ZM16.8515 5.83335L14.3582 3.99502L12.8749 6.00669L15.3665 7.84502L16.8515 5.83335ZM23.1749 5.90335C22.2049 6.58669 21.5615 7.03835 21.0315 7.32835C20.5282 7.60335 20.2399 7.66835 19.9949 7.66669L19.9665 10.1667C20.7965 10.175 21.5165 9.91169 22.2315 9.52169C22.9149 9.14669 23.6932 8.59669 24.6149 7.94502L23.1749 5.90335ZM15.3665 7.84502C16.2765 8.51669 17.0415 9.08335 17.7165 9.47335C18.4215 9.87835 19.1382 10.1567 19.9665 10.1667L19.9949 7.66669C19.7482 7.66335 19.4615 7.59169 18.9649 7.30669C18.4399 7.00502 17.8065 6.53835 16.8515 5.83335L15.3665 7.84502ZM30.3232 15.2367L24.1532 17.7917L25.1099 20.1017L31.2799 17.5467L30.3232 15.2367ZM21.2315 15.43V8.91669H18.7315V15.43H21.2315ZM27.5482 28.145L23.8132 23.825L21.9232 25.4617L25.6565 29.78L27.5482 28.145ZM14.6849 29.735L18.0765 25.415L16.1099 23.8717L12.7182 28.19L14.6849 29.735ZM15.8149 17.795L9.7532 15.24L8.78153 17.5434L14.8432 20.0984L15.8149 17.795Z" fill="white"/>
<path d="M24.6313 18.9467L23.438 19.315L24.6313 18.9483V18.9467ZM15.3297 18.9467L16.523 19.315L15.3297 18.9483V18.9467ZM20.2313 16.7667L23.293 19.1067L24.8113 17.1217L21.7497 14.78L20.233 16.7667H20.2313ZM23.438 19.5617L22.2347 23.4567L24.6247 24.195L25.8263 20.3L23.438 19.5617ZM21.838 23.75H18.1213V26.25H21.838V23.75ZM17.7263 23.4567L16.523 19.5617L14.1347 20.3L15.3363 24.195L17.7263 23.4567ZM16.6663 19.1067L19.728 16.7667L18.2097 14.78L15.148 17.1217L16.6663 19.1067ZM23.293 19.1067C23.3619 19.1593 23.4126 19.2321 23.438 19.315L25.8247 18.5783C25.646 17.9991 25.2912 17.4899 24.8097 17.1217L23.293 19.1067ZM23.438 19.315C23.4629 19.3953 23.4629 19.4813 23.438 19.5617L25.8247 20.3C25.9979 19.7392 25.9979 19.1392 25.8247 18.5783L23.438 19.315ZM21.7497 14.7833C21.2416 14.3943 20.6196 14.1834 19.9797 14.1833V16.6833C20.0697 16.6833 20.158 16.7117 20.2313 16.7667L21.7497 14.7833ZM19.9797 14.1833C19.358 14.1833 18.733 14.3833 18.2113 14.7833L19.728 16.7667C19.8008 16.7114 19.89 16.6821 19.9813 16.6833V14.1833H19.9797ZM22.2347 23.4567C22.2102 23.5378 22.1613 23.611 22.0947 23.6633L23.6413 25.6267C24.0947 25.2683 24.4447 24.7767 24.6247 24.195L22.2347 23.4567ZM22.0947 23.6633C22.022 23.7206 21.9322 23.7517 21.8397 23.7517V26.2517C22.5097 26.2517 23.1397 26.02 23.6413 25.6267L22.0947 23.6633ZM18.1213 23.7517C18.0289 23.7516 17.9391 23.7205 17.8663 23.6633L16.3197 25.6267C16.8197 26.02 17.4513 26.2517 18.1213 26.2517V23.7517ZM17.8663 23.6633C17.7999 23.6109 17.751 23.5377 17.7263 23.4567L15.3363 24.195C15.5163 24.775 15.8647 25.2683 16.3197 25.6267L17.8663 23.6633ZM16.523 19.5617C16.4981 19.4813 16.4981 19.397 16.523 19.3167L14.1347 18.58C13.9614 19.1408 13.9614 19.7392 14.1347 20.3L16.523 19.5617ZM16.523 19.3167C16.5484 19.2338 16.5991 19.1609 16.668 19.1083L15.1497 17.1233C14.6682 17.4916 14.3134 18.0008 14.1347 18.58L16.523 19.3167ZM35.378 20C35.378 28.5167 28.483 35.4167 19.9797 35.4167V37.9167C29.8663 37.9167 37.878 29.8933 37.878 20H35.378ZM19.9797 35.4167C11.478 35.4167 4.58301 28.5167 4.58301 20H2.08301C2.08301 29.8933 10.0947 37.9167 19.9813 37.9167V35.4167H19.9797ZM4.58301 20C4.58301 11.4833 11.478 4.58334 19.9813 4.58334V2.08334C10.093 2.08334 2.08301 10.1067 2.08301 20H4.58301ZM19.9813 4.58334C28.4813 4.58334 35.378 11.4833 35.378 20H37.878C37.878 10.1067 29.8663 2.08334 19.9797 2.08334V4.58334H19.9813Z" fill="white"/>
</svg>
