<svg width="24" height="19" viewBox="0 0 24 19" fill="none" xmlns="http://www.w3.org/2000/svg">
<path d="M18.0583 16.6602C18.0583 16.6602 18.4079 17.1659 19.5211 17.8754C19.6044 17.9278 19.6917 17.982 19.7838 18.0367C20.1333 18.2459 20.544 18.4684 21.0292 18.6991L21.1457 15.7282C21.1457 15.7282 22.6603 15.8447 24.0001 15.2622C23.8457 15.1853 23.1805 14.827 22.224 14.0855C22.1384 14.0196 22.0492 13.9497 21.9595 13.8769C21.5366 13.5367 21.0653 13.1272 20.5615 12.6408C19.8059 13.9224 18.0583 16.6602 18.0583 16.6602Z" fill="url(#paint0_linear_159_1045)"/>
<path d="M5.94175 16.4854C5.94175 16.4854 5.59223 16.9911 4.47903 17.7006C4.39573 17.753 4.30835 17.8072 4.21631 17.8619C3.8668 18.0711 3.45903 18.2936 2.97087 18.5243L2.85437 15.5534C2.85437 15.5534 1.33981 15.6699 0 15.0874C0.154369 15.0105 0.819612 14.6522 1.77612 13.9107C1.86175 13.8448 1.95087 13.7749 2.04058 13.7021C2.4635 13.3619 2.93476 12.9524 3.43864 12.466C4.19417 13.7476 5.94175 16.4854 5.94175 16.4854Z" fill="url(#paint1_linear_159_1045)"/>
<path fill-rule="evenodd" clip-rule="evenodd" d="M12.1747 18.8738C17.3865 18.8738 21.6116 14.6487 21.6116 9.43689C21.6116 4.22504 17.3865 0 12.1747 0C6.96283 0 2.73779 4.22504 2.73779 9.43689C2.73779 14.6487 6.96283 18.8738 12.1747 18.8738ZM12.1747 16.602C16.1318 16.602 19.3397 13.3941 19.3397 9.43691C19.3397 5.47976 16.1318 2.27186 12.1747 2.27186C8.21755 2.27186 5.00965 5.47976 5.00965 9.43691C5.00965 13.3941 8.21755 16.602 12.1747 16.602Z" fill="#E36302"/>
<mask id="mask0_159_1045" style="mask-type:alpha" maskUnits="userSpaceOnUse" x="2" y="0" width="20" height="19">
<path fill-rule="evenodd" clip-rule="evenodd" d="M12.1747 18.8738C17.3865 18.8738 21.6116 14.6487 21.6116 9.43689C21.6116 4.22504 17.3865 0 12.1747 0C6.96283 0 2.73779 4.22504 2.73779 9.43689C2.73779 14.6487 6.96283 18.8738 12.1747 18.8738ZM12.1747 16.602C16.1318 16.602 19.3397 13.3941 19.3397 9.43691C19.3397 5.47976 16.1318 2.27186 12.1747 2.27186C8.21755 2.27186 5.00965 5.47976 5.00965 9.43691C5.00965 13.3941 8.21755 16.602 12.1747 16.602Z" fill="#6C7E92"/>
</mask>
<g mask="url(#mask0_159_1045)">
<g filter="url(#filter0_f_159_1045)">
<ellipse cx="8.52466" cy="2.6776" rx="3.3493" ry="6.31413" transform="rotate(42.5525 8.52466 2.6776)" fill="#FBEB93"/>
</g>
<g filter="url(#filter1_f_159_1045)">
<ellipse cx="17.8304" cy="2.60113" rx="2.15534" ry="6.06398" transform="rotate(150 17.8304 2.60113)" fill="#F9C94D"/>
</g>
<g filter="url(#filter2_f_159_1045)">
<ellipse cx="17.4288" cy="15.8561" rx="2.15534" ry="4.36893" transform="rotate(-135 17.4288 15.8561)" fill="#FEDB78"/>
</g>
<g filter="url(#filter3_f_159_1045)">
<ellipse cx="6.47737" cy="15.0406" rx="2.15534" ry="4.36893" transform="rotate(-45 6.47737 15.0406)" fill="#FBE515"/>
</g>
</g>
<circle cx="12.1748" cy="9.4369" r="7.16505" fill="url(#paint2_linear_159_1045)"/>
<path fill-rule="evenodd" clip-rule="evenodd" d="M12.1747 17.1262C16.4214 17.1262 19.864 13.6836 19.864 9.43688C19.864 5.19018 16.4214 1.74756 12.1747 1.74756C7.92798 1.74756 4.48535 5.19018 4.48535 9.43688C4.48535 13.6836 7.92798 17.1262 12.1747 17.1262ZM12.1747 16.602C16.1318 16.602 19.3397 13.3941 19.3397 9.43691C19.3397 5.47976 16.1318 2.27186 12.1747 2.27186C8.21753 2.27186 5.00963 5.47976 5.00963 9.43691C5.00963 13.3941 8.21753 16.602 12.1747 16.602Z" fill="url(#paint3_linear_159_1045)"/>
<path d="M13.98 12.8561C13.882 12.856 13.7856 12.8318 13.6992 12.7856L12.2266 12.012C12.207 12.0017 12.1852 11.9963 12.1631 11.9963C12.141 11.9963 12.1192 12.0017 12.0996 12.012L10.627 12.7856C10.5406 12.8318 10.4442 12.856 10.3462 12.8561C10.2584 12.8558 10.1717 12.8364 10.0921 12.7992C10.0126 12.7621 9.94206 12.708 9.88551 12.6408C9.82896 12.5736 9.78773 12.4949 9.76468 12.4102C9.74163 12.3254 9.73732 12.2367 9.75204 12.1501L10.0334 10.5109C10.0372 10.489 10.0355 10.4665 10.0286 10.4454C10.0217 10.4243 10.0098 10.4051 9.99378 10.3897L8.80311 9.22873C8.72267 9.15015 8.66579 9.05066 8.63887 8.94147C8.61196 8.83229 8.61609 8.71776 8.6508 8.61079C8.6855 8.50383 8.7494 8.40869 8.83529 8.33611C8.92118 8.26352 9.02564 8.21638 9.13689 8.19999L10.7831 7.96116C10.8051 7.95785 10.8259 7.94929 10.8439 7.93621C10.8618 7.92313 10.8763 7.90591 10.8862 7.88601L11.6225 6.39417C11.6723 6.29332 11.7493 6.20842 11.8449 6.14905C11.9404 6.08969 12.0506 6.05823 12.1631 6.05823C12.2756 6.05823 12.3858 6.08969 12.4813 6.14905C12.5769 6.20842 12.6539 6.29332 12.7037 6.39417L13.44 7.88601C13.4499 7.90591 13.4644 7.92313 13.4824 7.93621C13.5003 7.94929 13.5211 7.95785 13.5431 7.96116L15.1893 8.19999C15.3006 8.21638 15.405 8.26352 15.4909 8.33611C15.5768 8.40869 15.6407 8.50383 15.6754 8.61079C15.7101 8.71776 15.7142 8.83229 15.6873 8.94147C15.6604 9.05066 15.6035 9.15015 15.5231 9.22873L14.3324 10.3897C14.3164 10.4051 14.3045 10.4243 14.2976 10.4454C14.2907 10.4665 14.289 10.489 14.2928 10.5109L14.5742 12.1501C14.5889 12.2367 14.5846 12.3254 14.5615 12.4102C14.5385 12.4949 14.4972 12.5736 14.4407 12.6408C14.3842 12.708 14.3136 12.7621 14.2341 12.7992C14.1545 12.8364 14.0678 12.8558 13.98 12.8561Z" fill="white"/>
<path d="M12.4948 6.49763L13.2311 7.98947C13.2578 8.04314 13.297 8.08956 13.3455 8.12476C13.394 8.15996 13.4503 8.1829 13.5096 8.19161L15.1558 8.43102C15.2241 8.44095 15.2882 8.46979 15.341 8.51427C15.3938 8.55875 15.433 8.61711 15.4544 8.68274C15.4757 8.74837 15.4782 8.81866 15.4617 8.88567C15.4452 8.95267 15.4102 9.01371 15.3608 9.0619L14.1696 10.2229C14.1267 10.2648 14.0946 10.3164 14.0762 10.3735C14.0577 10.4305 14.0534 10.4912 14.0636 10.5502L14.3443 12.1901C14.3562 12.2581 14.3487 12.3281 14.3227 12.3921C14.2968 12.4561 14.2534 12.5115 14.1975 12.5521C14.1416 12.5927 14.0755 12.6168 14.0066 12.6217C13.9378 12.6266 13.8689 12.612 13.8078 12.5798L12.3381 11.8062C12.285 11.7781 12.2258 11.7634 12.1657 11.7634C12.1056 11.7634 12.0464 11.7781 11.9933 11.8062L10.5189 12.5798C10.4579 12.612 10.389 12.6266 10.3201 12.6217C10.2512 12.6168 10.1851 12.5927 10.1292 12.5521C10.0733 12.5115 10.03 12.4561 10.004 12.3921C9.97806 12.3281 9.97057 12.2581 9.98239 12.1901L10.2632 10.5502C10.2733 10.4912 10.269 10.4305 10.2505 10.3735C10.2321 10.3164 10.2 10.2648 10.1572 10.2229L8.96589 9.0619C8.91648 9.01371 8.88154 8.95267 8.86501 8.88567C8.84849 8.81866 8.85103 8.74837 8.87236 8.68274C8.89369 8.61711 8.93296 8.55875 8.98573 8.51427C9.03849 8.46979 9.10264 8.44095 9.17094 8.43102L10.8172 8.19161C10.8764 8.1829 10.9327 8.15996 10.9812 8.12476C11.0297 8.08956 11.069 8.04314 11.0956 7.98947L11.8319 6.49763C11.8623 6.43568 11.9095 6.38351 11.9681 6.34702C12.0267 6.31054 12.0943 6.2912 12.1634 6.2912C12.2324 6.2912 12.3 6.31054 12.3586 6.34702C12.4172 6.38351 12.4644 6.43568 12.4948 6.49763Z" fill="url(#paint4_linear_159_1045)"/>
<circle cx="12.1748" cy="9.4369" r="7.01942" stroke="url(#paint5_linear_159_1045)" stroke-width="0.291262"/>
<path opacity="0.15" d="M19.5727 3.58252C19.1293 4.11322 18.7259 4.52301 18.2339 4.99944C18.1974 5.03562 18.161 5.0718 18.1245 5.10799C18.1002 5.13211 18.082 5.1502 18.0577 5.17433C17.9666 5.25876 17.8755 5.34922 17.7783 5.43365C17.7418 5.4638 17.7115 5.49395 17.675 5.53014C17.6507 5.54823 17.6264 5.57235 17.6082 5.59044C17.5778 5.6206 17.5474 5.64472 17.5171 5.66884C14.2854 8.50929 10.1791 10.2401 5.84187 10.5537C5.79934 10.5537 5.7629 10.5597 5.72038 10.5597C5.69 10.5597 5.65963 10.5658 5.62926 10.5658C5.58066 10.5658 5.53814 10.5718 5.48954 10.5718C5.33161 10.5778 5.17367 10.5899 5.01573 10.5899C4.96714 10.5899 4.91247 10.5959 4.86387 10.5959C4.74238 10.6019 4.62089 10.6019 4.50547 10.6019C3.94055 10.6019 3.37562 10.5838 2.80461 10.5356C2.76209 10.1798 2.73779 9.81192 2.73779 9.44405C2.73779 4.22751 6.99602 0 12.2444 0C14.6074 0 16.7142 0.906856 18.3786 2.3301C18.8099 2.69797 19.2083 3.14228 19.5727 3.58252Z" fill="url(#paint6_linear_159_1045)"/>
<defs>
<filter id="filter0_f_159_1045" x="0.155392" y="-5.93396" width="16.7385" height="17.2232" filterUnits="userSpaceOnUse" color-interpolation-filters="sRGB">
<feFlood flood-opacity="0" result="BackgroundImageFix"/>
<feBlend mode="normal" in="SourceGraphic" in2="BackgroundImageFix" result="shape"/>
<feGaussianBlur stdDeviation="1.71845" result="effect1_foregroundBlur_159_1045"/>
</filter>
<filter id="filter1_f_159_1045" x="10.8326" y="-6.19782" width="13.9956" height="17.5979" filterUnits="userSpaceOnUse" color-interpolation-filters="sRGB">
<feFlood flood-opacity="0" result="BackgroundImageFix"/>
<feBlend mode="normal" in="SourceGraphic" in2="BackgroundImageFix" result="shape"/>
<feGaussianBlur stdDeviation="1.71845" result="effect1_foregroundBlur_159_1045"/>
</filter>
<filter id="filter2_f_159_1045" x="10.5463" y="8.97369" width="13.7649" height="13.7649" filterUnits="userSpaceOnUse" color-interpolation-filters="sRGB">
<feFlood flood-opacity="0" result="BackgroundImageFix"/>
<feBlend mode="normal" in="SourceGraphic" in2="BackgroundImageFix" result="shape"/>
<feGaussianBlur stdDeviation="1.71845" result="effect1_foregroundBlur_159_1045"/>
</filter>
<filter id="filter3_f_159_1045" x="-0.405155" y="8.15814" width="13.7649" height="13.7649" filterUnits="userSpaceOnUse" color-interpolation-filters="sRGB">
<feFlood flood-opacity="0" result="BackgroundImageFix"/>
<feBlend mode="normal" in="SourceGraphic" in2="BackgroundImageFix" result="shape"/>
<feGaussianBlur stdDeviation="1.71845" result="effect1_foregroundBlur_159_1045"/>
</filter>
<linearGradient id="paint0_linear_159_1045" x1="22.697" y1="17.1189" x2="19.1614" y2="14.6408" gradientUnits="userSpaceOnUse">
<stop stop-color="#FC0106"/>
<stop offset="0.5559" stop-color="#E82626"/>
<stop offset="0.6787" stop-color="#B90004"/>
<stop offset="1" stop-color="#790400"/>
</linearGradient>
<linearGradient id="paint1_linear_159_1045" x1="2.03883" y1="16.6311" x2="4.39985" y2="14.6526" gradientUnits="userSpaceOnUse">
<stop stop-color="#FC0106"/>
<stop offset="0.493927" stop-color="#E82626"/>
<stop offset="0.716768" stop-color="#B90004"/>
<stop offset="1" stop-color="#790400"/>
</linearGradient>
<linearGradient id="paint2_linear_159_1045" x1="12.1748" y1="2.27185" x2="12.1748" y2="16.6019" gradientUnits="userSpaceOnUse">
<stop stop-color="#FFCE31"/>
<stop offset="0.5" stop-color="#F7E547"/>
<stop offset="1" stop-color="#FBA400"/>
</linearGradient>
<linearGradient id="paint3_linear_159_1045" x1="12.1747" y1="1.66686" x2="12.1747" y2="17.1185" gradientUnits="userSpaceOnUse">
<stop stop-color="#FFEE02"/>
<stop offset="0.5" stop-color="#D27003"/>
<stop offset="1" stop-color="#FBA400"/>
</linearGradient>
<linearGradient id="paint4_linear_159_1045" x1="12.1644" y1="6.35369" x2="12.1644" y2="11.8612" gradientUnits="userSpaceOnUse">
<stop offset="0.0820804" stop-color="#F7E547"/>
<stop offset="0.2263" stop-color="#FEFCAF"/>
<stop offset="0.3883" stop-color="#F8DC20"/>
<stop offset="0.5895" stop-color="#E67A0B"/>
<stop offset="1" stop-color="#F8DC20"/>
</linearGradient>
<linearGradient id="paint5_linear_159_1045" x1="12.1748" y1="2.27185" x2="12.1748" y2="16.6019" gradientUnits="userSpaceOnUse">
<stop stop-color="#F7E547"/>
<stop offset="1" stop-color="#340354" stop-opacity="0.22"/>
</linearGradient>
<linearGradient id="paint6_linear_159_1045" x1="7.18612" y1="1.4548" x2="12.5171" y2="8.91661" gradientUnits="userSpaceOnUse">
<stop offset="0.5084" stop-color="white" stop-opacity="0"/>
<stop offset="1" stop-color="white"/>
</linearGradient>
</defs>
</svg>
