<svg width="36" height="32" viewBox="0 0 36 32" fill="none" xmlns="http://www.w3.org/2000/svg">
<path opacity="0.16" d="M20 31C28.2843 31 35 24.2843 35 16C35 7.71573 28.2843 1 20 1C11.7157 1 5 7.71573 5 16C5 24.2843 11.7157 31 20 31Z" fill="white"/>
<path d="M9.39334 26.6067C11.8474 29.0608 15.0766 30.5879 18.5305 30.928C21.9844 31.268 25.4494 30.3998 28.3349 28.4713C31.2204 26.5428 33.3479 23.6734 34.3548 20.3521C35.3617 17.0308 35.1858 13.463 33.857 10.2569C32.5281 7.05074 30.1286 4.4046 27.0674 2.76939C24.0061 1.13418 20.4726 0.611098 17.0689 1.28929C13.6652 1.96748 10.6019 3.80497 8.40122 6.48863C6.20051 9.17229 4.99849 12.536 5 16.0067V19.3333" stroke="white" stroke-width="2" stroke-linecap="round" stroke-linejoin="round"/>
<path d="M1.66699 16L5.00033 19.3333L8.33366 16M18.3337 9.33334V17.6667H26.667" stroke="white" stroke-width="2" stroke-linecap="round" stroke-linejoin="round"/>
</svg>
