<svg width="42" height="42" viewBox="0 0 42 42" fill="none" xmlns="http://www.w3.org/2000/svg">
<path d="M32.6065 22.4558C32.4121 24.0059 31.9092 25.5014 31.1275 26.854C30.3457 28.2066 29.301 29.3889 28.0549 30.3312M25.4642 31.813C22.6054 32.9931 19.3956 32.9931 16.5367 31.813M13.946 30.3312C12.7155 29.401 11.6811 28.2368 10.9024 26.9053C10.1236 25.5738 9.61587 24.1015 9.40837 22.573M9.39349 19.5442C9.58796 17.994 10.091 16.4985 10.8729 15.1459C11.6548 13.7933 12.6997 12.611 13.946 11.6688M16.5395 10.187C19.3912 9.01068 22.5922 9.00834 25.4456 10.1805M28.0688 11.6791C29.2973 12.6107 30.3294 13.776 31.1059 15.1079C31.8824 16.4398 32.388 17.912 32.5935 19.44M9.41302 19.5395C9.63236 19.7267 9.80853 19.9592 9.92942 20.221C10.0503 20.4829 10.113 20.7677 10.1133 21.0561C10.1136 21.3445 10.0514 21.6295 9.93096 21.8915C9.81055 22.1535 9.63481 22.3863 9.41581 22.574M32.5879 22.4605C32.3689 22.2736 32.1929 22.0416 32.072 21.7803C31.9511 21.519 31.8882 21.2347 31.8875 20.9468C31.8868 20.6589 31.9483 20.3743 32.0679 20.1125C32.1876 19.8506 32.3624 19.6177 32.5805 19.4298M13.96 30.2986C14.2283 30.2065 14.5131 30.1725 14.7955 30.199C15.0779 30.2256 15.3514 30.3119 15.5978 30.4524C15.8442 30.5928 16.0579 30.7842 16.2246 31.0136C16.3913 31.2431 16.5072 31.5055 16.5647 31.7833M25.4372 31.7833C25.4948 31.5057 25.6108 31.2435 25.7774 31.0142C25.9441 30.7849 26.1577 30.5937 26.404 30.4532C26.6502 30.3128 26.9236 30.2264 27.2058 30.1997C27.488 30.1731 27.7727 30.2068 28.0409 30.2986M16.5647 10.2121C16.5077 10.4902 16.3921 10.753 16.2256 10.9829C16.059 11.2128 15.8455 11.4047 15.599 11.5456C15.3526 11.6865 15.0789 11.7733 14.7963 11.8001C14.5137 11.827 14.2286 11.7933 13.96 11.7014M28.0716 11.6921C27.7994 11.7903 27.5092 11.8282 27.2209 11.8033C26.9326 11.7783 26.6532 11.691 26.402 11.5474C26.1508 11.4038 25.9337 11.2074 25.7658 10.9717C25.598 10.736 25.4833 10.4667 25.4298 10.1823M14.4967 35.7758L11.3656 37.0921L11.0307 34.2781M4.52372 22.8763L1.72837 20.8549L4.52372 18.8326M10.9944 7.70698L11.3637 4.61767L14.5293 5.94791M27.4688 5.94791L30.6354 4.61767L31.0037 7.70791M37.4744 18.8326L40.2707 20.8549L37.4753 22.8763M30.9702 34.2772L30.6354 37.0912L27.5042 35.7758M14.5219 6.01023L14.16 9.04L11.267 7.82419M30.733 7.82419L27.84 9.04L27.4781 6.0093M14.5219 35.9907L14.16 32.96L11.267 34.1758M30.733 34.1758L27.84 32.96L27.4781 35.9898M4.84558 19.0651L7.31907 20.8549L4.64837 22.787M37.3516 22.787L34.6809 20.8558L37.1544 19.066M37.0967 25.1684C36.3428 28.0796 34.8135 30.7319 32.6716 32.8428M25.4307 37.026C22.531 37.8279 19.4681 37.8279 16.5684 37.026M9.32837 32.8428C7.18649 30.7319 5.65717 28.0796 4.90326 25.1684M4.90326 16.8307C5.65748 13.9201 7.18678 11.2685 9.32837 9.15814M16.5693 4.97395C19.4636 4.17352 22.5207 4.17191 25.4158 4.9693M32.6716 9.15814C34.8087 11.2639 36.3361 13.9087 37.0921 16.8121M25.4177 37.013L24.907 40.5647M17.0912 40.5647L16.5814 37.013M9.36651 32.8233L5.9693 34.1833M2.09581 27.4019L4.93395 25.1702M4.93395 16.8279L2.09581 14.5963M5.97023 7.81581L9.36744 9.17674M16.5823 4.98698L17.0921 1.43349M24.9005 1.38326L25.4167 4.97395M32.6726 9.16L36.0307 7.81488M39.934 14.573L37.0874 16.8102M37.066 25.1702L39.9033 27.4028M36.0298 34.1823L32.6326 32.8223M21 12.7395L18.5647 17.6753L13.12 18.466L17.0605 22.307L16.1302 27.7302L21 25.1702L25.8698 27.7312L24.9395 22.3079L28.88 18.467L23.4353 17.6753L21 12.7395ZM41 21C41 32.0456 32.0456 41 21 41C9.95442 41 1 32.0456 1 21C1 9.95442 9.95442 1 21 1C32.0456 1 41 9.95442 41 21Z" stroke="white" stroke-linecap="round" stroke-linejoin="round"/>
</svg>
