<svg width="24" height="24" viewBox="0 0 24 24" fill="none" xmlns="http://www.w3.org/2000/svg">
<path d="M20.3433 17.1562H18.6956C18.5831 17.1562 18.4777 17.2054 18.4074 17.2922C18.2433 17.4914 18.0675 17.6836 17.8824 17.8664C17.1251 18.6244 16.2281 19.2285 15.2409 19.6453C14.2183 20.0772 13.1191 20.2988 12.0089 20.2969C10.8863 20.2969 9.79876 20.0765 8.77689 19.6453C7.78977 19.2285 6.89276 18.6244 6.13548 17.8664C5.37685 17.1109 4.77193 16.2155 4.35423 15.2297C3.92064 14.2078 3.70267 13.1226 3.70267 12C3.70267 10.8773 3.92298 9.79216 4.35423 8.77029C4.77142 7.78357 5.37142 6.89529 6.13548 6.13357C6.89954 5.37185 7.78783 4.77185 8.77689 4.35466C9.79876 3.92341 10.8863 3.7031 12.0089 3.7031C13.1316 3.7031 14.2191 3.92107 15.2409 4.35466C16.23 4.77185 17.1183 5.37185 17.8824 6.13357C18.0675 6.31872 18.241 6.51091 18.4074 6.70779C18.4777 6.79451 18.5855 6.84372 18.6956 6.84372H20.3433C20.4909 6.84372 20.5824 6.67966 20.5003 6.55544C18.7027 3.76169 15.5574 1.91247 11.9831 1.92185C6.36751 1.93591 1.86517 6.49451 1.92142 12.1031C1.97767 17.6226 6.47298 22.0781 12.0089 22.0781C15.5738 22.0781 18.705 20.2312 20.5003 17.4445C20.58 17.3203 20.4909 17.1562 20.3433 17.1562ZM22.4269 11.8523L19.1011 9.22732C18.9769 9.12888 18.7964 9.21794 18.7964 9.37497V11.1562H11.437C11.3339 11.1562 11.2495 11.2406 11.2495 11.3437V12.6562C11.2495 12.7593 11.3339 12.8437 11.437 12.8437H18.7964V14.625C18.7964 14.782 18.9792 14.8711 19.1011 14.7726L22.4269 12.1476C22.4493 12.1301 22.4674 12.1077 22.4799 12.0821C22.4924 12.0565 22.4988 12.0284 22.4988 12C22.4988 11.9715 22.4924 11.9434 22.4799 11.9178C22.4674 11.8923 22.4493 11.8699 22.4269 11.8523Z" fill="white" fill-opacity="0.56"/>
</svg>
