<svg width="35" height="35" viewBox="0 0 35 35" fill="none" xmlns="http://www.w3.org/2000/svg">
<circle cx="17.5" cy="17.5" r="17.5" fill="#051337"/>
<circle cx="17.5" cy="17.5" r="17" stroke="#FF1975" stroke-opacity="0.25"/>
<path d="M21.5384 11.0242V24.7742C21.5384 26.305 22.5834 27.1667 23.7292 27.1667C24.7742 27.1667 25.9201 26.4425 25.9201 24.7742V11.125C25.9201 9.71334 24.8751 8.83334 23.7292 8.83334C22.5834 8.83334 21.5384 9.80501 21.5384 11.0242ZM15.8092 18V24.7742C15.8092 26.3142 16.8726 27.1667 18.0001 27.1667C19.0451 27.1667 20.1909 26.4425 20.1909 24.7742V18.1008C20.1909 16.6892 19.1459 15.8092 18.0001 15.8092C16.8542 15.8092 15.8092 16.7808 15.8092 18ZM12.2709 22.7942C13.4809 22.7942 14.4617 23.775 14.4617 24.9758C14.4617 25.5569 14.2309 26.1141 13.8201 26.525C13.4092 26.9359 12.852 27.1667 12.2709 27.1667C11.6899 27.1667 11.1326 26.9359 10.7218 26.525C10.3109 26.1141 10.0801 25.5569 10.0801 24.9758C10.0801 23.775 11.0609 22.7942 12.2709 22.7942Z" fill="#FF1975"/>
</svg>
