<svg width="24" height="24" viewBox="0 0 24 24" fill="none" xmlns="http://www.w3.org/2000/svg">
<g clip-path="url(#clip0_291_429)">
<path d="M21.6732 18.5533C21.0303 17.9802 20.4675 17.3232 19.9999 16.6C19.4894 15.6017 19.1834 14.5115 19.0999 13.3933V10.1C19.1043 8.34373 18.4672 6.6463 17.3084 5.32663C16.1495 4.00697 14.5486 3.15589 12.8065 2.93332V2.07332C12.8065 1.83728 12.7128 1.6109 12.5459 1.44399C12.379 1.27709 12.1526 1.18332 11.9165 1.18332C11.6805 1.18332 11.4541 1.27709 11.2872 1.44399C11.1203 1.6109 11.0265 1.83728 11.0265 2.07332V2.94665C9.30004 3.18527 7.71852 4.04149 6.57489 5.35672C5.43126 6.67196 4.80302 8.35708 4.80654 10.1V13.3933C4.72304 14.5115 4.41705 15.6017 3.90654 16.6C3.44712 17.3216 2.89333 17.9785 2.25987 18.5533C2.18876 18.6158 2.13176 18.6927 2.09268 18.7789C2.0536 18.8651 2.03332 18.9587 2.0332 19.0533V19.96C2.0332 20.1368 2.10344 20.3064 2.22847 20.4314C2.35349 20.5564 2.52306 20.6267 2.69987 20.6267H21.2332C21.41 20.6267 21.5796 20.5564 21.7046 20.4314C21.8296 20.3064 21.8999 20.1368 21.8999 19.96V19.0533C21.8997 18.9587 21.8795 18.8651 21.8404 18.7789C21.8013 18.6927 21.7443 18.6158 21.6732 18.5533ZM3.41987 19.2933C4.04014 18.6941 4.58627 18.0227 5.04654 17.2933C5.68961 16.0876 6.06482 14.7573 6.14654 13.3933V10.1C6.1201 9.31868 6.25115 8.54004 6.5319 7.81043C6.81265 7.08083 7.23734 6.41518 7.7807 5.85312C8.32406 5.29106 8.97496 4.8441 9.69466 4.53884C10.4144 4.23357 11.1881 4.07626 11.9699 4.07626C12.7516 4.07626 13.5254 4.23357 14.2451 4.53884C14.9648 4.8441 15.6157 5.29106 16.159 5.85312C16.7024 6.41518 17.1271 7.08083 17.4078 7.81043C17.6886 8.54004 17.8196 9.31868 17.7932 10.1V13.3933C17.8749 14.7573 18.2501 16.0876 18.8932 17.2933C19.3535 18.0227 19.8996 18.6941 20.5199 19.2933H3.41987Z" fill="white"/>
<path d="M11.9996 22.8533C12.4195 22.8437 12.8225 22.6858 13.1373 22.4076C13.4521 22.1295 13.6583 21.7489 13.7196 21.3333H10.2129C10.2759 21.7602 10.4918 22.1497 10.8204 22.4293C11.1491 22.7089 11.5681 22.8596 11.9996 22.8533Z" fill="white"/>
</g>
<defs>
<clipPath id="clip0_291_429">
<rect width="24" height="24" fill="white"/>
</clipPath>
</defs>
</svg>
