<svg width="12" height="12" viewBox="0 0 12 12" fill="none" xmlns="http://www.w3.org/2000/svg">
<path d="M7.75221 1.72378C8.08827 1.39546 8.54021 1.21287 9.01001 1.21561C9.47981 1.21834 9.92959 1.40618 10.2618 1.73839C10.594 2.0706 10.7818 2.52038 10.7846 2.99018C10.7873 3.45998 10.6047 3.91192 10.2764 4.24798L9.87502 4.64938L7.35082 2.12518L7.75221 1.72378ZM6.92661 2.54998L2.12722 7.34938C1.93082 7.546 1.79451 7.79449 1.73422 8.06578L1.20742 10.4358C1.1964 10.4851 1.19801 10.5364 1.21211 10.5849C1.22621 10.6334 1.25233 10.6776 1.28806 10.7133C1.32379 10.7491 1.36797 10.7752 1.41649 10.7893C1.46501 10.8034 1.5163 10.805 1.56562 10.794L3.92121 10.2702C4.20168 10.2077 4.45852 10.0666 4.66161 9.86338L9.45082 5.07418L6.92661 2.54998Z" fill="white"/>
</svg>
