<svg width="27" height="27" viewBox="0 0 27 27" fill="none" xmlns="http://www.w3.org/2000/svg">
<circle cx="13.5" cy="13.5" r="13.5" fill="#FF1975" fill-opacity="0.25"/>
<g clip-path="url(#clip0_162_2244)">
<path d="M8.54199 11.0209V10.3125C8.54199 8.99749 9.06439 7.73632 9.99425 6.80645C10.9241 5.87658 12.1853 5.35419 13.5003 5.35419C14.8154 5.35419 16.0765 5.87658 17.0064 6.80645C17.9363 7.73632 18.4587 8.99749 18.4587 10.3125C18.4585 11.2195 18.0983 12.0893 17.4571 12.7308L15.7472 14.4407C15.484 14.7038 15.2752 15.0162 15.1327 15.36C14.9903 15.7039 14.917 16.0724 14.917 16.4446V16.6875H12.0837V15.8574C12.0837 14.5753 12.5937 13.3449 13.5003 12.4375L14.4162 11.5216C14.575 11.3629 14.7009 11.1744 14.7869 10.9669C14.8728 10.7594 14.917 10.5371 14.917 10.3125C14.917 9.9368 14.7677 9.57646 14.5021 9.31079C14.2364 9.04511 13.876 8.89585 13.5003 8.89585C13.1246 8.89585 12.7643 9.04511 12.4986 9.31079C12.2329 9.57646 12.0837 9.9368 12.0837 10.3125V11.0209H8.54199ZM13.5003 18.8125C13.876 18.8125 14.2364 18.9618 14.5021 19.2275C14.7677 19.4931 14.917 19.8535 14.917 20.2292C14.917 20.6049 14.7677 20.9652 14.5021 21.2309C14.2364 21.4966 13.876 21.6459 13.5003 21.6459C13.1246 21.6459 12.7643 21.4966 12.4986 21.2309C12.2329 20.9652 12.0837 20.6049 12.0837 20.2292C12.0837 19.8535 12.2329 19.4931 12.4986 19.2275C12.7643 18.9618 13.1246 18.8125 13.5003 18.8125Z" stroke="#FF1975"/>
</g>
<defs>
<clipPath id="clip0_162_2244">
<rect width="17" height="17" fill="white" transform="translate(5 5)"/>
</clipPath>
</defs>
</svg>
