<svg width="41" height="41" viewBox="0 0 41 41" fill="none" xmlns="http://www.w3.org/2000/svg">
<path d="M29.5328 1.28125L22.2937 12.1078H25.8812L33.9531 1.28125H29.5328Z" fill="#428BC1"/>
<path d="M25.8813 1.28125L18.7063 12.1078H22.2938L29.5329 1.28125H25.8813Z" fill="#E8E8E8"/>
<path d="M22.2937 1.28125L15.1187 12.1078H18.7062L25.8812 1.28125H22.2937Z" fill="#ED4C5C"/>
<path d="M20.5001 39.7188C27.7885 39.7188 33.697 33.8103 33.697 26.5219C33.697 19.2335 27.7885 13.325 20.5001 13.325C13.2117 13.325 7.30322 19.2335 7.30322 26.5219C7.30322 33.8103 13.2117 39.7188 20.5001 39.7188Z" fill="#B2C1C0"/>
<path d="M13.9018 9.67346C13.5814 9.67346 13.3252 9.92971 13.3252 10.25V15.6313C13.3252 15.9516 13.5814 16.2078 13.9018 16.2078H27.0986C27.4189 16.2078 27.6752 15.9516 27.6752 15.6313V10.25C27.6752 9.92971 27.4189 9.67346 27.0986 9.67346H13.9018ZM26.5221 13.9016C26.5221 14.2219 26.2658 14.4781 25.9455 14.4781H15.1189C14.7986 14.4781 14.5424 14.2219 14.5424 13.9016V11.4672C14.5424 11.1469 14.7986 10.8906 15.1189 10.8906H25.9455C26.2658 10.8906 26.5221 11.1469 26.5221 11.4672V13.9016Z" fill="#B2C1C0"/>
<path opacity="0.5" d="M9.16089 28.0594C9.16089 20.8844 14.6703 15.0547 21.7171 14.5422C21.3968 14.5422 21.0125 14.4781 20.6921 14.4781C13.9656 14.4781 8.52026 19.9235 8.52026 26.7141C8.52026 28.7 9.03276 30.6219 9.86558 32.2875C9.41714 30.9422 9.16089 29.5328 9.16089 28.0594Z" fill="#3E4347"/>
<path opacity="0.33" d="M25.5609 36.7078C31.5187 32.736 33.3125 24.9844 29.8531 18.9625C30.0453 19.2188 30.2375 19.475 30.4296 19.7953C34.1453 25.3047 32.6078 32.8 27.0343 36.5797C25.3687 37.7328 23.5109 38.3735 21.6531 38.5656C23.0625 38.1172 24.3437 37.5406 25.5609 36.7078Z" fill="white"/>
<path d="M15.1188 12.1078H18.7063L11.4672 1.28125H7.04688L15.1188 12.1078Z" fill="#ED4C5C"/>
<path d="M18.7063 12.1078H22.2938L15.1188 1.28125H11.4673L18.7063 12.1078Z" fill="#E8E8E8"/>
<path opacity="0.5" d="M21.0765 3.07501L19.2827 5.76564L23.5108 12.1078H25.8812L26.5218 11.2109L21.0765 3.07501Z" fill="#3E4347"/>
<path d="M22.2937 12.1078H25.8812L18.7062 1.28125H15.1187L22.2937 12.1078Z" fill="#428BC1"/>
<path opacity="0.5" d="M20.1798 20.1797C18.8345 20.1797 17.7454 21.2688 17.7454 22.55H16.0157C16.0157 22.7422 15.9517 22.9344 15.9517 23.1266H18.386C18.386 21.7812 19.4751 20.6922 20.8204 20.6922C21.3329 20.6922 21.7813 20.8844 22.1657 21.1406C21.7173 20.6281 21.0126 20.1797 20.1798 20.1797ZM24.9845 34.5938H16.0157V35.2344H25.6251V32.8H24.9845V34.5938ZM20.1798 27.4187C18.8345 27.4187 17.7454 28.5078 17.7454 29.8531V32.2875H18.322V30.4937C18.322 29.1484 19.411 28.0594 20.7563 28.0594C23.3829 28.0594 25.561 25.8812 25.561 23.2547C25.561 21.7812 24.9204 20.4359 23.8313 19.5391C24.536 20.3719 24.9845 21.4609 24.9845 22.6141C24.9845 25.2406 22.8704 27.4187 20.1798 27.4187Z" fill="#3E4347"/>
<path opacity="0.33" d="M18.3859 32.2234H24.9844V32.8H18.3859V32.2234ZM20.8203 25.625C22.1656 25.625 23.2547 24.536 23.2547 23.1906C23.2547 22.3578 22.8703 21.6531 22.2297 21.2047C22.4859 21.5891 22.6781 22.0375 22.6781 22.55C22.6781 23.8953 21.5891 24.9844 20.2438 24.9844C17.6172 24.9844 15.4391 27.1625 15.4391 29.7891V34.5938H16.0156V30.3656C16.0156 27.7391 18.1297 25.625 20.8203 25.625ZM20.8203 18.386C21.9734 18.386 23.0625 18.8344 23.8953 19.5391C22.9984 18.5141 21.7172 17.8094 20.1797 17.8094C17.5531 17.8094 15.375 19.9875 15.375 22.6141H16.0156C16.3359 20.2438 18.3219 18.386 20.8203 18.386Z" fill="white"/>
</svg>
