<svg width="75" height="51" viewBox="0 0 75 51" fill="none" xmlns="http://www.w3.org/2000/svg">
<path d="M72.4415 0.37854H9.7151C8.51115 0.37854 7.53516 1.35454 7.53516 2.55849V44.6398C7.53516 45.8437 8.51115 46.8197 9.7151 46.8197H72.4415C73.6455 46.8197 74.6215 45.8437 74.6215 44.6398V2.55849C74.6215 1.35454 73.6455 0.37854 72.4415 0.37854Z" fill="white"/>
<path d="M72.4421 47.1981H9.71563C9.03741 47.1971 8.38725 46.9272 7.90767 46.4477C7.4281 45.9681 7.15823 45.3179 7.15723 44.6397V2.55841C7.15823 1.88019 7.4281 1.23002 7.90767 0.750446C8.38725 0.270868 9.03741 0.00100107 9.71563 0H72.4421C73.1203 0.00100107 73.7705 0.270868 74.25 0.750446C74.7296 1.23002 74.9995 1.88019 75.0005 2.55841V44.6397C74.9995 45.3179 74.7296 45.9681 74.25 46.4477C73.7705 46.9272 73.1203 47.1971 72.4421 47.1981ZM9.71563 0.756926C9.23816 0.757926 8.78053 0.948047 8.4429 1.28567C8.10527 1.6233 7.91515 2.08093 7.91415 2.55841V44.6397C7.91515 45.1172 8.10527 45.5748 8.4429 45.9124C8.78053 46.2501 9.23816 46.4402 9.71563 46.4412H72.4421C72.9199 46.4412 73.3781 46.2514 73.7159 45.9135C74.0538 45.5757 74.2436 45.1175 74.2436 44.6397V2.55841C74.2436 2.08063 74.0538 1.62241 73.7159 1.28457C73.3781 0.946725 72.9199 0.756926 72.4421 0.756926H9.71563Z" fill="#093F68"/>
<path d="M71.0491 4.9313V42.2667C71.0481 42.6595 70.8914 43.0359 70.6132 43.3133C70.3351 43.5907 69.9584 43.7465 69.5655 43.7465H12.6144C12.4198 43.747 12.227 43.709 12.047 43.6349C11.867 43.5608 11.7034 43.4518 11.5656 43.3144C11.4278 43.1769 11.3185 43.0136 11.2439 42.8338C11.1693 42.654 11.1309 42.4613 11.1309 42.2667V4.9313C11.1309 4.53783 11.2872 4.16048 11.5654 3.88225C11.8436 3.60403 12.221 3.44772 12.6144 3.44772H69.5655C69.9587 3.44872 70.3355 3.60535 70.6135 3.88335C70.8915 4.16136 71.0481 4.53814 71.0491 4.9313Z" fill="#68E1FD"/>
<path d="M69.565 44.1248H12.6139C12.3693 44.1253 12.1271 44.0777 11.901 43.9846C11.6749 43.8914 11.4694 43.7547 11.2961 43.5821C11.1228 43.4096 10.9853 43.2046 10.8912 42.9789C10.7972 42.7532 10.7485 42.5111 10.748 42.2666V4.93122C10.749 4.43703 10.9461 3.96342 11.2959 3.61433C11.6457 3.26524 12.1197 3.06918 12.6139 3.06918H69.565C70.0585 3.07018 70.5315 3.26668 70.8805 3.61567C71.2295 3.96465 71.426 4.43768 71.427 4.93122V42.2666C71.426 42.7598 71.2294 43.2324 70.8803 43.5808C70.5312 43.9292 70.0582 44.1248 69.565 44.1248ZM12.6139 3.82611C12.4663 3.82258 12.3196 3.84854 12.1823 3.90244C12.0449 3.95635 11.9197 4.03714 11.8139 4.14006C11.7082 4.24298 11.624 4.36597 11.5664 4.50182C11.5088 4.63768 11.4789 4.78366 11.4785 4.93122V42.2666C11.4789 42.414 11.5089 42.5598 11.5665 42.6954C11.6241 42.8311 11.7083 42.9538 11.8141 43.0565C11.9199 43.1591 12.0452 43.2395 12.1825 43.293C12.3199 43.3465 12.4665 43.372 12.6139 43.3679H69.565C69.7099 43.3684 69.8535 43.3403 69.9876 43.2852C70.1216 43.23 70.2435 43.149 70.3462 43.0467C70.4488 42.9444 70.5303 42.8228 70.5859 42.6889C70.6415 42.5551 70.6701 42.4115 70.6701 42.2666V4.93122C70.6701 4.63813 70.5536 4.35704 70.3464 4.14979C70.1391 3.94254 69.8581 3.82611 69.565 3.82611H12.6139Z" fill="#093F68"/>
<path d="M41.0787 44.1286C40.9783 44.1286 40.882 44.0887 40.811 44.0178C40.7401 43.9468 40.7002 43.8505 40.7002 43.7502V3.44765C40.7002 3.34727 40.7401 3.25101 40.811 3.18003C40.882 3.10906 40.9783 3.06918 41.0787 3.06918C41.179 3.06918 41.2753 3.10906 41.3463 3.18003C41.4172 3.25101 41.4571 3.34727 41.4571 3.44765V43.7502C41.4571 43.8505 41.4172 43.9468 41.3463 44.0178C41.2753 44.0887 41.179 44.1286 41.0787 44.1286Z" fill="#093F68"/>
<path d="M41.0787 31.6319C39.4896 31.6319 37.9361 31.1607 36.6148 30.2778C35.2935 29.395 34.2637 28.1401 33.6556 26.672C33.0474 25.2038 32.8883 23.5883 33.1983 22.0297C33.5084 20.4711 34.2736 19.0394 35.3973 17.9157C36.521 16.7921 37.9526 16.0268 39.5112 15.7168C41.0698 15.4068 42.6853 15.5659 44.1535 16.174C45.6217 16.7822 46.8765 17.812 47.7594 19.1333C48.6423 20.4546 49.1135 22.0081 49.1135 23.5972C49.1115 25.7275 48.2643 27.77 46.7579 29.2764C45.2516 30.7828 43.2091 31.6299 41.0787 31.6319ZM41.0787 16.3231C39.6391 16.3231 38.2319 16.7501 37.035 17.5499C35.8381 18.3498 34.9052 19.4867 34.3545 20.8167C33.8038 22.1468 33.6599 23.6103 33.941 25.0222C34.2221 26.4341 34.9156 27.7308 35.9338 28.7485C36.952 29.7662 38.2492 30.459 39.6612 30.7394C41.0732 31.0198 42.5367 30.8751 43.8664 30.3237C45.1962 29.7723 46.3326 28.8389 47.1319 27.6416C47.9311 26.4442 48.3573 25.0368 48.3566 23.5972C48.3546 21.6679 47.587 19.8183 46.2225 18.4545C44.858 17.0907 43.008 16.3241 41.0787 16.3231Z" fill="#093F68"/>
<path d="M20.4482 32.6274H11.1001C10.9998 32.6274 10.9035 32.5875 10.8325 32.5165C10.7616 32.4455 10.7217 32.3493 10.7217 32.2489V14.9494C10.7217 14.849 10.7616 14.7527 10.8325 14.6817C10.9035 14.6108 10.9998 14.5709 11.1001 14.5709H20.4482C20.5485 14.5709 20.6448 14.6108 20.7158 14.6817C20.7868 14.7527 20.8266 14.849 20.8266 14.9494V32.2489C20.8266 32.3493 20.7868 32.4455 20.7158 32.5165C20.6448 32.5875 20.5485 32.6274 20.4482 32.6274ZM11.49 31.8704H20.0697V15.3278H11.4786L11.49 31.8704Z" fill="#093F68"/>
<path d="M20.4488 31.0493C20.3746 31.0487 20.3022 31.0263 20.2406 30.985C20.1886 30.9507 20.1458 30.9041 20.1161 30.8493C20.0864 30.7945 20.0706 30.7332 20.0703 30.6708V16.5277C20.0706 16.4653 20.0864 16.404 20.1161 16.3492C20.1458 16.2944 20.1886 16.2478 20.2406 16.2136C20.2921 16.1796 20.351 16.1588 20.4124 16.1529C20.4737 16.1469 20.5356 16.1561 20.5926 16.1795C22.0616 16.7859 23.3175 17.8148 24.2012 19.1357C25.0849 20.4565 25.5566 22.01 25.5566 23.5993C25.5566 25.1885 25.0849 26.742 24.2012 28.0628C23.3175 29.3837 22.0616 30.4126 20.5926 31.019C20.5471 31.0384 20.4982 31.0487 20.4488 31.0493ZM20.8272 17.1181V30.0804C22.0225 29.4714 23.0261 28.5437 23.727 27.3999C24.4279 26.2561 24.7988 24.9407 24.7988 23.5993C24.7988 22.2578 24.4279 20.9424 23.727 19.7986C23.0261 18.6548 22.0225 17.7271 20.8272 17.1181Z" fill="#093F68"/>
<path d="M71.049 32.6274H61.7085C61.6082 32.6274 61.5119 32.5875 61.4409 32.5165C61.3699 32.4455 61.3301 32.3493 61.3301 32.2489V14.9494C61.3301 14.849 61.3699 14.7527 61.4409 14.6817C61.5119 14.6108 61.6082 14.5709 61.7085 14.5709H71.049C71.1494 14.5709 71.2456 14.6108 71.3166 14.6817C71.3876 14.7527 71.4275 14.849 71.4275 14.9494V32.2489C71.4275 32.3493 71.3876 32.4455 71.3166 32.5165C71.2456 32.5875 71.1494 32.6274 71.049 32.6274ZM62.087 31.8704H70.6705V15.3278H62.087V31.8704Z" fill="#093F68"/>
<path d="M61.7079 31.0493C61.6584 31.0487 61.6095 31.0384 61.564 31.019C60.0954 30.4118 58.8399 29.3825 57.9565 28.0613C57.0731 26.7402 56.6016 25.1866 56.6016 23.5974C56.6016 22.0081 57.0731 20.4546 57.9565 19.1334C58.8399 17.8123 60.0954 16.7829 61.564 16.1757C61.6219 16.1522 61.6846 16.1433 61.7467 16.15C61.8088 16.1566 61.8682 16.1784 61.9198 16.2136C61.9712 16.2483 62.0132 16.2951 62.0422 16.3499C62.0713 16.4046 62.0864 16.4657 62.0863 16.5277V30.6708C62.0863 30.7712 62.0464 30.8675 61.9755 30.9385C61.9045 31.0094 61.8082 31.0493 61.7079 31.0493ZM61.3294 17.1181C60.1341 17.7271 59.1306 18.6548 58.4297 19.7986C57.7288 20.9424 57.3578 22.2578 57.3578 23.5993C57.3578 24.9407 57.7288 26.2561 58.4297 27.3999C59.1306 28.5437 60.1341 29.4714 61.3294 30.0804V17.1181Z" fill="#093F68"/>
<path d="M71.0488 40.1929V42.2668C71.0478 42.6597 70.891 43.036 70.6129 43.3134C70.3348 43.5909 69.958 43.7466 69.5652 43.7466H67.4912C67.4922 42.8038 67.8675 41.8999 68.5345 41.2335C69.2016 40.5672 70.1059 40.1929 71.0488 40.1929Z" fill="#68E1FD"/>
<path d="M69.5657 44.125H67.4917C67.3914 44.125 67.2951 44.0852 67.2241 44.0142C67.1532 43.9432 67.1133 43.8469 67.1133 43.7466C67.1163 42.7065 67.5299 41.7098 68.2643 40.9734C68.9986 40.2369 69.9942 39.8203 71.0342 39.8143C71.1334 39.8147 71.2286 39.8542 71.2991 39.9241C71.3348 39.9591 71.3633 40.0009 71.3828 40.0471C71.4023 40.0932 71.4124 40.1427 71.4126 40.1928V42.2668C71.4116 42.7573 71.2171 43.2277 70.8713 43.5757C70.5255 43.9236 70.0563 44.121 69.5657 44.125ZM67.9043 43.3681H69.5657C69.7107 43.3686 69.8543 43.3405 69.9883 43.2853C70.1224 43.2302 70.2443 43.1492 70.3469 43.0469C70.4496 42.9445 70.5311 42.823 70.5866 42.6891C70.6422 42.5552 70.6708 42.4117 70.6708 42.2668V40.6053C69.9688 40.6943 69.3162 41.0139 68.8155 41.514C68.3147 42.014 67.9942 42.6662 67.9043 43.3681Z" fill="#093F68"/>
<path d="M71.0491 4.9313V7.00528C70.1076 7.00227 69.2056 6.62613 68.5409 5.95929C67.8762 5.29244 67.5029 4.38928 67.5029 3.44772H69.5656C69.9587 3.44872 70.3355 3.60535 70.6135 3.88335C70.8915 4.16136 71.0481 4.53814 71.0491 4.9313Z" fill="#68E1FD"/>
<path d="M71.0493 7.38366C70.006 7.38166 69.006 6.96633 68.2683 6.22862C67.5306 5.49091 67.1153 4.49093 67.1133 3.44765C67.1133 3.34727 67.1532 3.25101 67.2241 3.18003C67.2951 3.10906 67.3914 3.06918 67.4917 3.06918H69.5544C70.0479 3.07018 70.5209 3.26668 70.8699 3.61567C71.2189 3.96465 71.4154 4.43768 71.4164 4.93122V7.0052C71.4162 7.05527 71.4061 7.1048 71.3866 7.15093C71.3671 7.19706 71.3386 7.23885 71.3029 7.27391C71.2352 7.34114 71.1446 7.38034 71.0493 7.38366ZM67.9043 3.82611C67.9911 4.53075 68.3102 5.18638 68.8112 5.68944C69.3122 6.19249 69.9665 6.5143 70.6708 6.60403V4.93122C70.6708 4.63813 70.5544 4.35704 70.3471 4.14979C70.1399 3.94254 69.8588 3.82611 69.5657 3.82611H67.9043Z" fill="#093F68"/>
<path d="M14.6543 43.7466H12.6144C12.4198 43.7471 12.227 43.7092 12.047 43.6351C11.867 43.5609 11.7034 43.452 11.5656 43.3146C11.4278 43.1771 11.3185 43.0138 11.2439 42.834C11.1693 42.6542 11.1309 42.4615 11.1309 42.2668V40.1929C12.0681 40.2009 12.9643 40.5788 13.6242 41.2444C14.2841 41.91 14.6544 42.8093 14.6543 43.7466Z" fill="#68E1FD"/>
<path d="M14.6538 44.125H12.6139C12.3693 44.1255 12.1271 44.0779 11.901 43.9847C11.6749 43.8916 11.4694 43.7549 11.2961 43.5823C11.1228 43.4098 10.9853 43.2048 10.8912 42.9791C10.7972 42.7533 10.7485 42.5113 10.748 42.2668V40.1928C10.7483 40.1427 10.7584 40.0932 10.7779 40.0471C10.7974 40.0009 10.8258 39.9591 10.8616 39.9241C10.9321 39.8542 11.0272 39.8147 11.1265 39.8143C12.1665 39.8203 13.162 40.2369 13.8964 40.9734C14.6307 41.7098 15.0444 42.7065 15.0474 43.7466C15.0474 43.7976 15.0372 43.848 15.0172 43.895C14.9972 43.9419 14.968 43.9843 14.9312 44.0197C14.8945 44.055 14.8509 44.0826 14.8033 44.1007C14.7556 44.1188 14.7047 44.1271 14.6538 44.125ZM11.4785 40.6053V42.2781C11.4804 42.4246 11.5115 42.5691 11.5698 42.7035C11.6281 42.8378 11.7125 42.9592 11.8182 43.0606C11.9238 43.162 12.0486 43.2414 12.1852 43.2942C12.3217 43.347 12.4675 43.3721 12.6139 43.3681H14.2715C14.1803 42.6622 13.856 42.0071 13.35 41.5065C12.844 41.006 12.1853 40.6888 11.4785 40.6053Z" fill="#093F68"/>
<path d="M14.6689 3.44784C14.6689 4.39137 14.2941 5.29624 13.6269 5.96341C12.9597 6.63058 12.0548 7.0054 11.1113 7.0054V4.93142C11.1113 4.73499 11.1503 4.54051 11.226 4.35927C11.3018 4.17803 11.4128 4.01364 11.5525 3.87562C11.6923 3.73761 11.8581 3.62873 12.0403 3.5553C12.2225 3.48186 12.4174 3.44534 12.6138 3.44784H14.6689Z" fill="#68E1FD"/>
<path d="M11.1001 7.38385C10.9998 7.38385 10.9035 7.34398 10.8325 7.273C10.7616 7.20202 10.7217 7.10576 10.7217 7.00539V4.93141C10.7222 4.68446 10.7717 4.44006 10.8673 4.21238C10.9629 3.98471 11.1028 3.77828 11.2788 3.60507C11.4549 3.43187 11.6635 3.29533 11.8927 3.20337C12.1219 3.11141 12.3671 3.06586 12.614 3.06937H14.688C14.7883 3.06937 14.8846 3.10924 14.9556 3.18022C15.0266 3.2512 15.0664 3.34746 15.0664 3.44783C15.0659 3.96713 14.9628 4.48122 14.7629 4.96051C14.5631 5.43981 14.2704 5.87486 13.9018 6.24065C13.5332 6.60644 13.0959 6.89575 12.6151 7.09195C12.1343 7.28814 11.6194 7.38734 11.1001 7.38385ZM12.5875 3.8263C12.2941 3.8263 12.0126 3.94261 11.8047 4.14975C11.5969 4.35689 11.4796 4.63797 11.4786 4.93141V6.60422C12.1866 6.52018 12.8458 6.20058 13.3503 5.69677C13.8548 5.19296 14.1753 4.53419 14.2603 3.8263H12.5875Z" fill="#093F68"/>
<path d="M31.1856 35.1477C31.2176 37.1911 30.8428 39.2204 30.083 41.1176C29.3232 43.0147 28.1936 44.7417 26.7599 46.198C25.3262 47.6544 23.6171 48.8109 21.7321 49.6004C19.8471 50.3899 17.8239 50.7964 15.7803 50.7964C13.7366 50.7964 11.7134 50.3899 9.82845 49.6004C7.94347 48.8109 6.23437 47.6544 4.80068 46.198C3.36698 44.7417 2.23734 43.0147 1.47753 41.1176C0.717715 39.2204 0.342911 37.1911 0.374939 35.1477C0.374939 34.8412 0.374937 34.5384 0.405214 34.2356C0.64329 30.3194 2.3668 26.6416 5.22403 23.9528C8.08125 21.264 11.8568 19.7669 15.7803 19.7669C19.7037 19.7669 23.4793 21.264 26.3365 23.9528C29.1937 26.6416 30.9173 30.3194 31.1553 34.2356C31.1591 34.5498 31.1856 34.8412 31.1856 35.1477Z" fill="white"/>
<path d="M15.7819 50.9333C13.7088 50.9343 11.6558 50.5267 9.74038 49.7337C7.82494 48.9407 6.08459 47.7779 4.61886 46.3118C3.15313 44.8457 1.99076 43.1051 1.19822 41.1895C0.405678 39.2738 -0.00148831 37.2207 4.08776e-06 35.1476C4.08776e-06 34.8487 3.97305e-06 34.5421 0.0264964 34.2128C0.267602 30.1982 2.03232 26.4271 4.96019 23.6698C7.88807 20.9125 11.7582 19.377 15.78 19.377C19.8019 19.377 23.672 20.9125 26.5998 23.6698C29.5277 26.4271 31.2924 30.1982 31.5335 34.2128C31.5335 34.5421 31.5638 34.8487 31.5638 35.1476C31.5648 37.2206 31.1573 39.2735 30.3646 41.1889C29.5719 43.1043 28.4095 44.8447 26.9438 46.3107C25.4782 47.7767 23.7381 48.9395 21.8228 49.7327C19.9076 50.5258 17.8549 50.9338 15.7819 50.9333ZM15.7819 20.1264C11.9517 20.1245 8.26556 21.5862 5.47751 24.2125C2.68946 26.8387 1.01026 30.431 0.783422 34.2545C0.783422 34.5724 0.75693 34.8638 0.75693 35.1476C0.75693 39.1325 2.33991 42.9542 5.15764 45.7719C7.97537 48.5896 11.797 50.1726 15.7819 50.1726C19.7668 50.1726 23.5884 48.5896 26.4062 45.7719C29.2239 42.9542 30.8069 39.1325 30.8069 35.1476C30.8069 34.8638 30.8069 34.5724 30.7766 34.2545C30.5516 30.431 28.8735 26.8382 26.0858 24.2117C23.2982 21.5852 19.612 20.1237 15.7819 20.1264Z" fill="#093F68"/>
<path d="M15.7814 29.9139L10.1953 33.971L12.3298 40.5335H19.2292L21.3638 33.971L15.7814 29.9139Z" fill="#093F68"/>
<path d="M19.23 40.9119H12.3307C12.2509 40.9118 12.1731 40.8865 12.1085 40.8396C12.044 40.7927 11.9959 40.7266 11.9711 40.6507L9.8366 34.0882C9.81199 34.0118 9.81229 33.9296 9.83746 33.8534C9.86263 33.7772 9.91137 33.711 9.97663 33.6643L15.559 29.6072C15.6234 29.5607 15.7009 29.5357 15.7804 29.5357C15.8598 29.5357 15.9373 29.5607 16.0018 29.6072L21.5879 33.6643C21.6525 33.7115 21.7004 33.7779 21.7249 33.8541C21.7494 33.9303 21.7491 34.0122 21.7241 34.0882L19.5896 40.6507C19.5648 40.7266 19.5167 40.7927 19.4522 40.8396C19.3876 40.8865 19.3099 40.9118 19.23 40.9119ZM12.6069 40.155H18.9575L20.918 34.0995L15.7822 30.3868L10.6427 34.1185L12.6069 40.155Z" fill="#093F68"/>
<path d="M22.053 21.0767L15.7819 25.6182L9.51074 21.0767C11.4854 20.2009 13.6217 19.7484 15.7819 19.7484C17.9421 19.7484 20.0783 20.2009 22.053 21.0767Z" fill="#093F68"/>
<path d="M15.7823 26.0119C15.7024 26.0107 15.6246 25.9856 15.559 25.9399L9.28789 21.3984C9.23413 21.3596 9.1915 21.3074 9.16427 21.2469C9.13703 21.1865 9.12615 21.12 9.13272 21.054C9.13968 20.9878 9.16399 20.9245 9.2032 20.8707C9.2424 20.8169 9.29511 20.7744 9.35601 20.7474C11.3814 19.8468 13.5733 19.3814 15.7899 19.3814C18.0065 19.3814 20.1984 19.8468 22.2238 20.7474C22.2839 20.7749 22.3359 20.8176 22.3744 20.8714C22.4129 20.9252 22.4367 20.9882 22.4433 21.054C22.4502 21.1196 22.4399 21.1859 22.4134 21.2463C22.3868 21.3067 22.3449 21.3592 22.2919 21.3984L16.0207 25.9399C15.9509 25.9886 15.8674 26.0138 15.7823 26.0119ZM10.2757 21.1675L15.7823 25.1641L21.2889 21.1675C17.749 19.78 13.8157 19.78 10.2757 21.1675Z" fill="#093F68"/>
<path d="M6.26669 31.6244L0.404297 34.2358C0.63439 30.2624 2.39837 26.5337 5.32432 23.8356L5.44921 23.8659L6.25533 31.5222L6.26669 31.6244Z" fill="#093F68"/>
<path d="M0.405512 34.6144C0.353842 34.6145 0.302701 34.604 0.255238 34.5836C0.207775 34.5632 0.164996 34.5332 0.129539 34.4956C0.0940816 34.4581 0.0666952 34.4136 0.0490688 34.365C0.0314423 34.3165 0.0239488 34.2648 0.0270491 34.2132C0.263021 30.1472 2.07076 26.3322 5.06817 23.5746C5.11332 23.533 5.16792 23.503 5.22726 23.4871C5.28661 23.4713 5.34891 23.4702 5.40879 23.4838L5.53369 23.5103C5.6112 23.5273 5.68141 23.5682 5.73438 23.6273C5.78735 23.6864 5.82041 23.7607 5.82889 23.8396L6.64258 31.6018C6.64968 31.6799 6.63238 31.7582 6.59306 31.826C6.55374 31.8938 6.49434 31.9477 6.42307 31.9803L0.560683 34.5917C0.511113 34.61 0.458253 34.6178 0.405512 34.6144ZM5.14008 24.5397C2.69588 26.9773 1.17361 30.1877 0.833177 33.6228L5.86295 31.3823L5.14008 24.5397Z" fill="#093F68"/>
<path d="M31.1593 34.2357L25.2969 31.6243V31.5221L26.103 23.8658L26.2279 23.8393C29.1585 26.5336 30.9268 30.2616 31.1593 34.2357Z" fill="#093F68"/>
<path d="M31.1584 34.6141C31.106 34.6141 31.0543 34.6025 31.007 34.58L25.1446 31.9686C25.0726 31.9366 25.0124 31.883 24.9724 31.8151C24.9324 31.7473 24.9145 31.6686 24.9213 31.5902V31.488L25.7312 23.8279C25.7399 23.7485 25.7736 23.6739 25.8273 23.6147C25.881 23.5556 25.952 23.5149 26.0302 23.4986L26.1551 23.4721C26.2142 23.4603 26.2752 23.4627 26.3331 23.4791C26.391 23.4956 26.4442 23.5256 26.4882 23.5668C29.4921 26.3234 31.3032 30.1425 31.5369 34.2129C31.54 34.2645 31.5325 34.3162 31.5148 34.3647C31.4972 34.4133 31.4698 34.4577 31.4344 34.4953C31.3989 34.5329 31.3561 34.5628 31.3087 34.5833C31.2612 34.6037 31.2101 34.6142 31.1584 34.6141ZM25.701 31.3896L30.7307 33.6301C30.3925 30.1944 28.8699 26.9833 26.4238 24.547L25.701 31.3896Z" fill="#093F68"/>
<path d="M29.3348 42.4712C27.4426 45.9698 24.2727 48.6028 20.4863 49.8209L21.9396 43.2016H22.0267L29.3348 42.4712Z" fill="#093F68"/>
<path d="M20.4861 50.1994C20.3923 50.1991 20.3019 50.1641 20.2325 50.101C20.1805 50.0545 20.1424 49.9945 20.1224 49.9277C20.1024 49.861 20.1012 49.7899 20.1189 49.7225L21.5685 43.1032C21.5859 43.0246 21.6279 42.9535 21.6885 42.9004C21.7491 42.8473 21.825 42.815 21.9053 42.808H21.9923L29.2967 42.0851C29.3657 42.0767 29.4356 42.0874 29.4989 42.1161C29.5622 42.1449 29.6164 42.1905 29.6555 42.2479C29.6946 42.3054 29.7171 42.3725 29.7206 42.4419C29.724 42.5114 29.7083 42.5804 29.6751 42.6415C27.7444 46.2313 24.4943 48.9305 20.611 50.1691C20.5719 50.1879 20.5294 50.1982 20.4861 50.1994ZM22.2497 43.5536L21.0008 49.2305C24.1935 48.0538 26.8891 45.8228 28.6419 42.9064L22.2497 43.5536Z" fill="#093F68"/>
<path d="M11.1003 49.8322C7.3194 48.6233 4.14928 46.0048 2.24805 42.5203L9.5486 43.1486V43.1713L11.1003 49.8322Z" fill="#093F68"/>
<path d="M11.1007 50.2107C11.0618 50.2161 11.0223 50.2161 10.9834 50.2107C7.0987 48.9849 3.84199 46.2981 1.90032 42.7171C1.8671 42.6596 1.84961 42.5943 1.84961 42.5279C1.84961 42.4615 1.8671 42.3962 1.90032 42.3387C1.93761 42.2815 1.98966 42.2355 2.05095 42.2055C2.11224 42.1756 2.1805 42.1627 2.2485 42.1683L9.55284 42.8004C9.63258 42.8071 9.70814 42.8389 9.76866 42.8913C9.82918 42.9437 9.87154 43.0138 9.88967 43.0918L11.4792 49.7452C11.4974 49.8122 11.4968 49.8831 11.4775 49.9498C11.4581 50.0166 11.4207 50.0767 11.3695 50.1236C11.2945 50.1862 11.1982 50.2174 11.1007 50.2107ZM2.9373 42.9593C4.6968 45.8632 7.3913 48.0826 10.5785 49.2532L9.24249 43.5043L2.9373 42.9593Z" fill="#093F68"/>
<path d="M10.1953 34.3494C10.1257 34.3489 10.0576 34.3293 9.99851 34.2926L4.79843 31.0644C4.72428 31.0071 4.67402 30.9243 4.65738 30.8321C4.64074 30.7399 4.65891 30.6447 4.70836 30.5651C4.75782 30.4855 4.83504 30.4271 4.92509 30.4012C5.01514 30.3753 5.11161 30.3837 5.19582 30.4248L10.3959 33.6493C10.4659 33.6927 10.5199 33.7578 10.5496 33.8346C10.5793 33.9115 10.5831 33.996 10.5604 34.0752C10.5377 34.1544 10.4897 34.2241 10.4239 34.2735C10.358 34.323 10.2777 34.3497 10.1953 34.3494Z" fill="#093F68"/>
<path d="M21.3562 34.3492C21.2738 34.3495 21.1936 34.3228 21.1277 34.2733C21.0618 34.2238 21.0139 34.1542 20.9912 34.075C20.9685 33.9957 20.9723 33.9113 21.002 33.8344C21.0317 33.7575 21.0856 33.6924 21.1557 33.649L26.3557 30.4245C26.3976 30.3922 26.4459 30.3689 26.4973 30.3564C26.5487 30.3438 26.6022 30.3422 26.6543 30.3516C26.7064 30.361 26.756 30.3812 26.7998 30.4109C26.8436 30.4407 26.8807 30.4793 26.9086 30.5243C26.9366 30.5693 26.9547 30.6196 26.962 30.672C26.9693 30.7245 26.9655 30.7779 26.9508 30.8288C26.9362 30.8796 26.911 30.9269 26.8769 30.9674C26.8429 31.008 26.8007 31.0409 26.7531 31.0641L21.553 34.2924C21.4939 34.3291 21.4258 34.3487 21.3562 34.3492Z" fill="#093F68"/>
<path d="M15.7818 31.3594C15.6814 31.3594 15.5851 31.3196 15.5142 31.2486C15.4432 31.1776 15.4033 31.0813 15.4033 30.981V25.6333C15.4033 25.5329 15.4432 25.4366 15.5142 25.3657C15.5851 25.2947 15.6814 25.2548 15.7818 25.2548C15.8822 25.2548 15.9784 25.2947 16.0494 25.3657C16.1204 25.4366 16.1602 25.5329 16.1602 25.6333V30.981C16.1602 31.0813 16.1204 31.1776 16.0494 31.2486C15.9784 31.3196 15.8822 31.3594 15.7818 31.3594Z" fill="#093F68"/>
<path d="M8.51563 44.5452C8.44032 44.5449 8.3668 44.5221 8.30449 44.4798C8.24219 44.4375 8.19393 44.3775 8.16588 44.3076C8.13784 44.2377 8.13129 44.161 8.14708 44.0874C8.16286 44.0137 8.20027 43.9465 8.2545 43.8942L12.0694 40.2572C12.1422 40.1879 12.2395 40.1504 12.3399 40.1529C12.4403 40.1554 12.5357 40.1977 12.6049 40.2704C12.6742 40.3432 12.7117 40.4405 12.7092 40.5409C12.7067 40.6414 12.6645 40.7367 12.5917 40.8059L8.77677 44.443C8.70602 44.5092 8.61255 44.5458 8.51563 44.5452Z" fill="#093F68"/>
<path d="M23.0481 44.5452C22.9511 44.5458 22.8577 44.5092 22.7869 44.443L18.9682 40.8059C18.8955 40.7367 18.8532 40.6414 18.8507 40.5409C18.8482 40.4405 18.8857 40.3432 18.955 40.2704C19.0242 40.1977 19.1196 40.1554 19.22 40.1529C19.3204 40.1504 19.4177 40.1879 19.4905 40.2572L23.3092 43.8942C23.3797 43.9651 23.4193 44.061 23.4193 44.161C23.4193 44.261 23.3797 44.3569 23.3092 44.4278C23.2409 44.4996 23.1471 44.5418 23.0481 44.5452Z" fill="#093F68"/>
<path d="M53.3557 37.0517C54.5262 37.0517 55.4751 36.1029 55.4751 34.9323C55.4751 33.7618 54.5262 32.813 53.3557 32.813C52.1852 32.813 51.2363 33.7618 51.2363 34.9323C51.2363 36.1029 52.1852 37.0517 53.3557 37.0517Z" fill="#FFBC0E"/>
<path d="M53.3561 37.4301C52.8612 37.4301 52.3774 37.2833 51.9659 37.0082C51.5544 36.7332 51.2338 36.3422 51.0446 35.8849C50.8553 35.4276 50.806 34.9244 50.9028 34.439C50.9997 33.9536 51.2383 33.5079 51.5885 33.1582C51.9388 32.8085 52.3849 32.5705 52.8704 32.4744C53.3559 32.3783 53.859 32.4284 54.3161 32.6183C54.7731 32.8082 55.1636 33.1295 55.438 33.5413C55.7124 33.9532 55.8585 34.4373 55.8578 34.9322C55.8568 35.595 55.5928 36.2304 55.1237 36.6987C54.6547 37.167 54.0189 37.4301 53.3561 37.4301ZM53.3561 33.1875C53.0111 33.1875 52.6737 33.2898 52.3868 33.4815C52.0999 33.6732 51.8763 33.9457 51.7442 34.2645C51.6122 34.5833 51.5776 34.9341 51.6449 35.2726C51.7123 35.611 51.8784 35.9219 52.1224 36.1659C52.3664 36.4099 52.6773 36.5761 53.0158 36.6434C53.3542 36.7107 53.705 36.6762 54.0238 36.5441C54.3426 36.4121 54.6151 36.1884 54.8068 35.9015C54.9985 35.6146 55.1008 35.2773 55.1008 34.9322C55.1008 34.4695 54.917 34.0257 54.5898 33.6985C54.2626 33.3713 53.8189 33.1875 53.3561 33.1875Z" fill="#093F68"/>
<path d="M56.5842 15.8766C57.7547 15.8766 58.7036 14.9277 58.7036 13.7572C58.7036 12.5867 57.7547 11.6378 56.5842 11.6378C55.4137 11.6378 54.4648 12.5867 54.4648 13.7572C54.4648 14.9277 55.4137 15.8766 56.5842 15.8766Z" fill="#FFBC0E"/>
<path d="M56.5837 16.2589C56.0889 16.2589 55.6052 16.1122 55.1938 15.8373C54.7824 15.5624 54.4618 15.1717 54.2725 14.7146C54.0831 14.2575 54.0336 13.7545 54.1301 13.2692C54.2266 12.784 54.4649 12.3382 54.8147 11.9884C55.1646 11.6385 55.6104 11.4002 56.0956 11.3037C56.5809 11.2072 57.0839 11.2567 57.541 11.4461C57.9981 11.6354 58.3888 11.9561 58.6637 12.3674C58.9386 12.7788 59.0853 13.2625 59.0853 13.7573C59.0853 14.4208 58.8217 15.0571 58.3526 15.5262C57.8835 15.9954 57.2471 16.2589 56.5837 16.2589ZM56.5837 12.0164C56.2384 12.0164 55.901 12.1188 55.614 12.3107C55.327 12.5025 55.1034 12.7752 54.9714 13.0943C54.8395 13.4133 54.8051 13.7643 54.8728 14.1028C54.9404 14.4414 55.1069 14.7523 55.3513 14.9961C55.5957 15.24 55.9069 15.4058 56.2456 15.4727C56.5843 15.5396 56.9352 15.5045 57.254 15.3719C57.5727 15.2393 57.8449 15.015 58.0362 14.7276C58.2274 14.4402 58.3291 14.1025 58.3284 13.7573C58.3274 13.2952 58.1431 12.8524 57.816 12.526C57.4889 12.1997 57.0457 12.0164 56.5837 12.0164Z" fill="#093F68"/>
<path d="M32.3128 13.7571C33.4833 13.7571 34.4321 12.8082 34.4321 11.6377C34.4321 10.4672 33.4833 9.51834 32.3128 9.51834C31.1422 9.51834 30.1934 10.4672 30.1934 11.6377C30.1934 12.8082 31.1422 13.7571 32.3128 13.7571Z" fill="#F56132"/>
<path d="M32.313 14.1354C31.8179 14.1362 31.3337 13.99 30.9218 13.7154C30.5098 13.4408 30.1886 13.0502 29.9988 12.5929C29.809 12.1356 29.7591 11.6323 29.8555 11.1467C29.9519 10.6611 30.1902 10.215 30.5403 9.86489C30.8904 9.5148 31.3365 9.27646 31.8221 9.18006C32.3078 9.08365 32.8111 9.13351 33.2683 9.32332C33.7256 9.51314 34.1163 9.83436 34.3909 10.2463C34.6655 10.6583 34.8116 11.1425 34.8109 11.6376C34.8089 12.2995 34.5451 12.9336 34.0771 13.4016C33.6091 13.8696 32.9749 14.1335 32.313 14.1354ZM32.313 9.89288C31.9678 9.89213 31.6301 9.99382 31.3427 10.1851C31.0553 10.3763 30.8311 10.6486 30.6984 10.9673C30.5658 11.286 30.5307 11.637 30.5976 11.9756C30.6645 12.3143 30.8304 12.6256 31.0742 12.8699C31.3181 13.1143 31.6289 13.2809 31.9675 13.3485C32.306 13.4161 32.657 13.3818 32.976 13.2499C33.2951 13.1179 33.5678 12.8943 33.7597 12.6073C33.9515 12.3203 34.054 11.9828 34.054 11.6376C34.053 11.1758 33.8694 10.7332 33.5432 10.4063C33.217 10.0795 32.7748 9.89488 32.313 9.89288Z" fill="#093F68"/>
<path d="M53.3557 24.6605C54.5262 24.6605 55.4751 23.7116 55.4751 22.5411C55.4751 21.3706 54.5262 20.4217 53.3557 20.4217C52.1852 20.4217 51.2363 21.3706 51.2363 22.5411C51.2363 23.7116 52.1852 24.6605 53.3557 24.6605Z" fill="#F56132"/>
<path d="M53.3561 25.0391C52.8612 25.0391 52.3774 24.8923 51.9659 24.6172C51.5544 24.3422 51.2338 23.9513 51.0446 23.4939C50.8553 23.0366 50.806 22.5334 50.9028 22.048C50.9997 21.5627 51.2383 21.1169 51.5885 20.7672C51.9388 20.4175 52.3849 20.1795 52.8704 20.0834C53.3559 19.9873 53.859 20.0374 54.3161 20.2273C54.7731 20.4173 55.1636 20.7385 55.438 21.1504C55.7124 21.5623 55.8585 22.0463 55.8578 22.5413C55.8568 23.2041 55.5928 23.8394 55.1237 24.3077C54.6547 24.7761 54.0189 25.0391 53.3561 25.0391ZM53.3561 20.7965C53.0111 20.7965 52.6737 20.8989 52.3868 21.0906C52.0999 21.2823 51.8763 21.5548 51.7442 21.8736C51.6122 22.1924 51.5776 22.5432 51.6449 22.8816C51.7123 23.2201 51.8784 23.5309 52.1224 23.775C52.3664 24.019 52.6773 24.1851 53.0158 24.2524C53.3542 24.3198 53.705 24.2852 54.0238 24.1532C54.3426 24.0211 54.6151 23.7975 54.8068 23.5106C54.9985 23.2236 55.1008 22.8863 55.1008 22.5413C55.1008 22.3121 55.0557 22.0853 54.968 21.8736C54.8804 21.6619 54.7518 21.4696 54.5898 21.3076C54.4278 21.1455 54.2355 21.017 54.0238 20.9293C53.8121 20.8417 53.5852 20.7965 53.3561 20.7965Z" fill="#093F68"/>
<path d="M40.7268 28.1009C41.8973 28.1009 42.8462 27.152 42.8462 25.9815C42.8462 24.811 41.8973 23.8621 40.7268 23.8621C39.5563 23.8621 38.6074 24.811 38.6074 25.9815C38.6074 27.152 39.5563 28.1009 40.7268 28.1009Z" fill="#FFBC0E"/>
<path d="M40.7262 28.4945C40.2315 28.4945 39.7478 28.3478 39.3364 28.0729C38.925 27.798 38.6044 27.4073 38.415 26.9502C38.2257 26.4931 38.1762 25.9901 38.2727 25.5048C38.3692 25.0195 38.6075 24.5738 38.9573 24.2239C39.3072 23.8741 39.7529 23.6358 40.2382 23.5393C40.7235 23.4428 41.2265 23.4923 41.6836 23.6816C42.1407 23.871 42.5314 24.1916 42.8063 24.603C43.0812 25.0144 43.2279 25.4981 43.2279 25.9929C43.2269 26.656 42.963 27.2917 42.4941 27.7607C42.0251 28.2296 41.3894 28.4935 40.7262 28.4945ZM40.7262 24.2519C40.381 24.2519 40.0435 24.3543 39.7565 24.5462C39.4695 24.7381 39.2459 25.0108 39.114 25.3298C38.982 25.6489 38.9477 25.9999 39.0153 26.3384C39.083 26.677 39.2495 26.9878 39.4939 27.2317C39.7383 27.4755 40.0495 27.6414 40.3882 27.7083C40.7269 27.7752 41.0778 27.7401 41.3966 27.6075C41.7153 27.4748 41.9875 27.2506 42.1788 26.9632C42.37 26.6758 42.4717 26.3381 42.471 25.9929C42.472 25.7631 42.4276 25.5354 42.3403 25.3229C42.2531 25.1103 42.1247 24.9171 41.9626 24.7543C41.8005 24.5914 41.6078 24.4623 41.3957 24.3741C41.1835 24.2859 40.956 24.2406 40.7262 24.2406V24.2519Z" fill="#093F68"/>
<path d="M56.9812 33.8271C56.8809 33.8416 56.7788 33.8157 56.6976 33.755C56.6163 33.6944 56.5625 33.6039 56.5479 33.5035C56.5334 33.4031 56.5593 33.3011 56.6199 33.2198C56.6806 33.1385 56.7711 33.0847 56.8715 33.0702C56.9283 33.0702 62.8361 31.1778 66.0341 24.3277C66.0779 24.2387 66.1549 24.1705 66.2484 24.1377C66.342 24.105 66.4447 24.1102 66.5344 24.1523C66.6242 24.1945 66.6938 24.2702 66.7283 24.3631C66.7629 24.4561 66.7595 24.5588 66.7191 24.6494C63.3735 31.7947 57.3484 33.7325 57.091 33.793C57.0566 33.8104 57.0195 33.8219 56.9812 33.8271Z" fill="white"/>
<path d="M67.4912 26.3601C67.4032 26.362 67.3173 26.3332 67.2482 26.2787C67.1791 26.2241 67.1312 26.1472 67.1127 26.0611L66.6321 23.8395L64.9139 24.445C64.819 24.4782 64.7149 24.4723 64.6244 24.4286C64.5339 24.385 64.4645 24.3071 64.4313 24.2123C64.3982 24.1174 64.4041 24.0133 64.4478 23.9228C64.4914 23.8323 64.5692 23.7629 64.6641 23.7298L66.7873 22.9728C66.8379 22.955 66.8918 22.9481 66.9453 22.9527C66.9988 22.9572 67.0507 22.9731 67.0976 22.9993C67.1444 23.0254 67.1852 23.0612 67.2172 23.1043C67.2491 23.1473 67.2716 23.1967 67.2831 23.2491L67.8508 25.8983C67.8722 25.9962 67.8539 26.0985 67.8 26.183C67.7461 26.2674 67.6609 26.327 67.5631 26.3487L67.4912 26.3601Z" fill="white"/>
<path d="M38.6899 7.3838C38.5896 7.38982 38.4909 7.35572 38.4157 7.289C38.3404 7.22229 38.2948 7.12841 38.2888 7.02804C38.2827 6.92766 38.3168 6.82901 38.3836 6.75378C38.4503 6.67854 38.5441 6.63289 38.6445 6.62687C38.6445 6.62687 38.8527 6.60038 39.2349 6.57767C39.3353 6.57767 39.4316 6.61754 39.5025 6.68852C39.5735 6.75949 39.6134 6.85576 39.6134 6.95613C39.6136 7.05269 39.5768 7.14567 39.5107 7.21603C39.4446 7.28638 39.354 7.3288 39.2576 7.33459C38.9132 7.35352 38.724 7.37622 38.7164 7.37622L38.6899 7.3838Z" fill="white"/>
<path d="M51.5954 10.2375C51.5321 10.2367 51.4699 10.2212 51.4137 10.192C51.1034 10.023 50.793 9.86026 50.4827 9.70383C50.4344 9.68436 50.3907 9.65514 50.3543 9.61801C50.3178 9.58088 50.2894 9.53662 50.2708 9.48802C50.2522 9.43941 50.2439 9.38749 50.2463 9.33551C50.2486 9.28352 50.2617 9.23259 50.2847 9.18589C50.3076 9.13919 50.34 9.09773 50.3797 9.06409C50.4194 9.03045 50.4656 9.00537 50.5155 8.9904C50.5653 8.97543 50.6177 8.9709 50.6693 8.97709C50.721 8.98328 50.7709 9.00006 50.8157 9.02638C51.1374 9.18534 51.4591 9.35186 51.7808 9.52974C51.8534 9.57089 51.9104 9.6349 51.9429 9.71181C51.9754 9.78871 51.9815 9.87419 51.9603 9.95493C51.9392 10.0357 51.8919 10.1072 51.8259 10.1583C51.7599 10.2094 51.6789 10.2372 51.5954 10.2375ZM49.7031 9.29509C49.6512 9.29418 49.5999 9.28393 49.5517 9.26481C49.2262 9.121 48.9007 8.98854 48.579 8.88635C48.4852 8.85072 48.4093 8.77926 48.3682 8.6877C48.327 8.59615 48.3239 8.49198 48.3595 8.39813C48.3952 8.30428 48.4666 8.22843 48.5582 8.18727C48.6497 8.1461 48.7539 8.14299 48.8477 8.17863C49.1808 8.30352 49.5176 8.43977 49.8544 8.58737C49.9003 8.60712 49.9417 8.63574 49.9765 8.67158C50.0112 8.70742 50.0385 8.74978 50.0568 8.79621C50.0751 8.84264 50.084 8.89223 50.083 8.94213C50.0821 8.99202 50.0713 9.04123 50.0512 9.08694C50.0189 9.1511 49.9691 9.20475 49.9074 9.24161C49.8457 9.27847 49.7749 9.29701 49.7031 9.29509ZM47.7048 8.53816C47.666 8.54544 47.6262 8.54544 47.5875 8.53816C47.2468 8.42841 46.91 8.32244 46.5807 8.23161C46.5328 8.21847 46.4878 8.196 46.4486 8.16549C46.4093 8.13498 46.3764 8.09701 46.3518 8.05378C46.3272 8.01054 46.3113 7.96288 46.3052 7.91352C46.299 7.86416 46.3026 7.81406 46.3158 7.7661C46.3289 7.71771 46.3515 7.6724 46.3823 7.63281C46.4131 7.59322 46.4514 7.56014 46.4951 7.53549C46.5387 7.51084 46.5869 7.49512 46.6366 7.48923C46.6864 7.48334 46.7369 7.4874 46.7851 7.50118C47.1257 7.59958 47.4739 7.70555 47.8221 7.81909C47.8697 7.8345 47.9138 7.85921 47.9518 7.89178C47.9898 7.92435 48.021 7.96414 48.0436 8.00885C48.0661 8.05355 48.0795 8.10228 48.0831 8.15221C48.0866 8.20214 48.0803 8.25228 48.0643 8.29973C48.0335 8.37312 47.9804 8.43493 47.9124 8.47638C47.8445 8.51782 47.7652 8.5368 47.6859 8.5306L47.7048 8.53816ZM45.6459 7.95912C45.617 7.9628 45.5878 7.9628 45.5589 7.95912C45.2069 7.87964 44.8625 7.80773 44.5295 7.74339C44.4291 7.72482 44.3402 7.66714 44.2824 7.58304C44.2245 7.49893 44.2025 7.39529 44.221 7.29491C44.2396 7.19454 44.2973 7.10565 44.3814 7.04781C44.4655 6.98996 44.5691 6.9679 44.6695 6.98647C45.0139 7.05459 45.3697 7.1265 45.733 7.21354C45.8334 7.22509 45.925 7.27603 45.9879 7.35517C46.0507 7.43431 46.0795 7.53516 46.0679 7.63553C46.0564 7.73591 46.0054 7.82758 45.9263 7.8904C45.8472 7.95321 45.7463 7.98201 45.6459 7.97047V7.95912ZM43.5417 7.58065H43.4887C43.1102 7.52767 42.7734 7.48604 42.4441 7.45576C42.3944 7.45103 42.346 7.43648 42.3018 7.41295C42.2577 7.38941 42.2187 7.35736 42.187 7.31865C42.1553 7.27994 42.1316 7.23533 42.1173 7.18741C42.103 7.13948 42.0983 7.0892 42.1035 7.03945C42.114 6.94028 42.1633 6.84927 42.2405 6.7862C42.3178 6.72312 42.4168 6.69309 42.516 6.70262C42.8605 6.73668 43.22 6.77831 43.5947 6.8313C43.695 6.83832 43.7885 6.88494 43.8545 6.96088C43.9205 7.03682 43.9537 7.13588 43.9466 7.23625C43.9396 7.33663 43.893 7.4301 43.8171 7.49611C43.7411 7.56211 43.6421 7.59525 43.5417 7.58822V7.58065ZM41.4147 7.3725H41.3769C41.0211 7.35358 40.6692 7.34222 40.3248 7.34222C40.2244 7.34222 40.1281 7.30235 40.0571 7.23137C39.9862 7.1604 39.9463 7.06413 39.9463 6.96376C39.9463 6.86338 39.9862 6.76712 40.0571 6.69615C40.1281 6.62517 40.2244 6.5853 40.3248 6.5853C40.6805 6.5853 41.0476 6.5853 41.4147 6.61557C41.5151 6.61557 41.6114 6.65545 41.6823 6.72642C41.7533 6.7974 41.7932 6.89366 41.7932 6.99404C41.7932 7.09441 41.7533 7.19068 41.6823 7.26165C41.6114 7.33263 41.5151 7.3725 41.4147 7.3725Z" fill="white"/>
<path d="M53.0119 11.0851C52.9393 11.0849 52.8684 11.0639 52.8075 11.0246L52.3533 10.7067C52.2726 10.6519 52.2162 10.568 52.1959 10.4726C52.1755 10.3772 52.1927 10.2777 52.244 10.1947C52.2952 10.1117 52.3765 10.0517 52.4709 10.0272C52.5654 10.0027 52.6656 10.0157 52.7507 10.0633C52.9147 10.1617 53.0775 10.2638 53.2389 10.3698C53.3078 10.4143 53.3603 10.4799 53.3887 10.5567C53.417 10.6336 53.4197 10.7176 53.3962 10.7961C53.3727 10.8746 53.3244 10.9434 53.2585 10.9921C53.1926 11.0408 53.1127 11.0668 53.0308 11.0662L53.0119 11.0851Z" fill="white"/>
<path d="M36.3929 25.0391H36.3247C33.3413 24.4996 30.5046 23.3392 27.9985 21.633C27.9585 21.6034 27.9247 21.5663 27.899 21.5237C27.8733 21.481 27.8563 21.4338 27.8489 21.3845C27.8415 21.3353 27.8439 21.2851 27.856 21.2368C27.868 21.1886 27.8895 21.1431 27.9191 21.1031C27.9486 21.0631 27.9858 21.0292 28.0284 21.0036C28.071 20.9779 28.1183 20.9609 28.1675 20.9535C28.2167 20.9461 28.2669 20.9485 28.3152 20.9605C28.3635 20.9726 28.4089 20.994 28.4489 21.0237C30.8649 22.6523 33.5913 23.7643 36.4572 24.2898C36.5576 24.2993 36.65 24.3483 36.7143 24.4261C36.7785 24.5038 36.8092 24.6038 36.7997 24.7042C36.7902 24.8046 36.7411 24.8971 36.6634 24.9613C36.5857 25.0255 36.4857 25.0562 36.3853 25.0467L36.3929 25.0391Z" fill="white"/>
<path d="M35.4772 26.3598C35.3931 26.3594 35.3115 26.331 35.2454 26.2791C35.1793 26.2272 35.1323 26.1547 35.1119 26.0731C35.0915 25.9916 35.0988 25.9055 35.1328 25.8286C35.1667 25.7517 35.2253 25.6882 35.2993 25.6483L36.6693 24.9141L35.6664 22.6963C35.6423 22.6506 35.6278 22.6004 35.6239 22.5489C35.6199 22.4974 35.6265 22.4456 35.6433 22.3968C35.6601 22.3479 35.6868 22.303 35.7216 22.2648C35.7564 22.2267 35.7987 22.196 35.8458 22.1748C35.8929 22.1536 35.9438 22.1422 35.9955 22.1414C36.0471 22.1406 36.0984 22.1504 36.1461 22.1702C36.1939 22.19 36.237 22.2194 36.273 22.2565C36.309 22.2936 36.3369 22.3376 36.3552 22.386L37.4906 24.9254C37.5308 25.0132 37.536 25.1131 37.5051 25.2045C37.4741 25.296 37.4094 25.3722 37.3241 25.4174L35.6399 26.3144C35.5898 26.3416 35.5342 26.3571 35.4772 26.3598Z" fill="white"/>
<path d="M51.3949 11.7134C51.2945 11.7179 51.1965 11.6824 51.1223 11.6146C51.0481 11.5468 51.0039 11.4523 50.9994 11.352C50.9949 11.2516 51.0304 11.1535 51.0982 11.0794C51.166 11.0052 51.2605 10.961 51.3608 10.9565L53.2721 10.7824L52.6476 9.14363C52.612 9.04978 52.6151 8.94562 52.6563 8.85406C52.6974 8.76251 52.7733 8.69105 52.8671 8.65542C52.961 8.61978 53.0651 8.62289 53.1567 8.66406C53.2482 8.70522 53.3197 8.78108 53.3553 8.87493L54.1577 10.9792C54.1785 11.0341 54.1863 11.0931 54.1804 11.1516C54.1745 11.2101 54.1551 11.2664 54.1236 11.316C54.0923 11.3652 54.0501 11.4065 54.0002 11.4367C53.9503 11.4669 53.8941 11.4852 53.836 11.4901L51.429 11.7096L51.3949 11.7134Z" fill="white"/>
</svg>
