<svg width="12" height="7" viewBox="0 0 12 7" fill="none" xmlns="http://www.w3.org/2000/svg">
<path d="M11.4 1.23529H0.6C0.44087 1.23529 0.288258 1.17022 0.175736 1.05439C0.0632141 0.938558 0 0.781457 0 0.617647C0 0.453837 0.0632141 0.296736 0.175736 0.180905C0.288258 0.0650733 0.44087 0 0.6 0H11.4C11.5591 0 11.7117 0.0650733 11.8243 0.180905C11.9368 0.296736 12 0.453837 12 0.617647C12 0.781457 11.9368 0.938558 11.8243 1.05439C11.7117 1.17022 11.5591 1.23529 11.4 1.23529ZM9.4 4.11765H2.6C2.44087 4.11765 2.28826 4.05257 2.17574 3.93674C2.06321 3.82091 2 3.66381 2 3.5C2 3.33619 2.06321 3.17909 2.17574 3.06326C2.28826 2.94743 2.44087 2.88235 2.6 2.88235H9.4C9.55913 2.88235 9.71174 2.94743 9.82426 3.06326C9.93679 3.17909 10 3.33619 10 3.5C10 3.66381 9.93679 3.82091 9.82426 3.93674C9.71174 4.05257 9.55913 4.11765 9.4 4.11765ZM7 7H5C4.84087 7 4.68826 6.93493 4.57574 6.8191C4.46321 6.70326 4.4 6.54616 4.4 6.38235C4.4 6.21854 4.46321 6.06144 4.57574 5.94561C4.68826 5.82978 4.84087 5.76471 5 5.76471H7C7.15913 5.76471 7.31174 5.82978 7.42426 5.94561C7.53679 6.06144 7.6 6.21854 7.6 6.38235C7.6 6.54616 7.53679 6.70326 7.42426 6.8191C7.31174 6.93493 7.15913 7 7 7Z" fill="white"/>
</svg>
