<svg width="27" height="27" viewBox="0 0 27 27" fill="none" xmlns="http://www.w3.org/2000/svg">
<circle cx="13.5" cy="13.5" r="13.5" fill="#FF1975" fill-opacity="0.25"/>
<path d="M14.125 8.5V7.25C17.0375 7.5625 19.3313 9.86875 19.6563 12.7812C20.0313 16.2125 17.5625 19.3 14.125 19.675V18.425C16.4 18.1437 18.1875 16.35 18.475 14.075C18.556 13.4232 18.5076 12.7619 18.3328 12.1288C18.1579 11.4958 17.8599 10.9034 17.4559 10.3856C17.0519 9.86779 16.5497 9.43473 15.9782 9.11118C15.4066 8.78763 14.7769 8.57994 14.125 8.5ZM9.54375 8.625C10.4911 7.84287 11.6518 7.36378 12.875 7.25V8.5375C11.9812 8.6625 11.1375 9.025 10.4375 9.5875L9.54375 8.625ZM7.28125 12.875C7.39731 11.6512 7.87855 10.4906 8.6625 9.54375L9.55625 10.4375C9.00249 11.1436 8.6485 11.9854 8.53125 12.875H7.28125ZM8.66875 17.4563C7.8923 16.5049 7.41205 15.3466 7.2875 14.125H8.5375C8.65 15.0125 9.00625 15.8562 9.55625 16.5625L8.66875 17.4563ZM9.54375 18.3375L10.4125 17.4813H10.4375C11.1438 18.0313 11.9875 18.3875 12.875 18.5V19.75C11.65 19.6187 10.4875 19.125 9.54375 18.3375ZM13.5 16.625L14.475 14.4875L16.625 13.5L14.475 12.525L13.5 10.375L12.5188 12.525L10.375 13.5L12.5188 14.4875L13.5 16.625Z" fill="#FF1975"/>
</svg>
