<svg width="26" height="26" viewBox="0 0 26 26" fill="none" xmlns="http://www.w3.org/2000/svg">
<path d="M18.3337 18.3334V7.66669M13.0003 18.3334V11.6667M7.66699 18.3334V14.3334" stroke="white" stroke-opacity="0.56" stroke-width="1.5" stroke-linecap="round" stroke-linejoin="round"/>
<path d="M1 24.2V1.8C1 1.58783 1.08429 1.38434 1.23431 1.23431C1.38434 1.08429 1.58783 1 1.8 1H24.2C24.4122 1 24.6157 1.08429 24.7657 1.23431C24.9157 1.38434 25 1.58783 25 1.8V24.2C25 24.4122 24.9157 24.6157 24.7657 24.7657C24.6157 24.9157 24.4122 25 24.2 25H1.8C1.58783 25 1.38434 24.9157 1.23431 24.7657C1.08429 24.6157 1 24.4122 1 24.2Z" stroke="white" stroke-opacity="0.56" stroke-width="1.5"/>
</svg>
