<svg width="24" height="28" viewBox="0 0 24 28" fill="none" xmlns="http://www.w3.org/2000/svg">
<path d="M22.638 2.19664C22.3334 2.07047 21.9982 2.03748 21.6748 2.10186C21.3514 2.16624 21.0544 2.32509 20.8213 2.55831C19.8066 3.56976 18.4324 4.13771 16.9997 4.13771C15.567 4.13771 14.1927 3.56976 13.178 2.55831C11.5378 0.922775 9.31599 0.0043335 6.99968 0.0043335C4.68337 0.0043335 2.46156 0.922775 0.821342 2.55831C0.666346 2.71287 0.543414 2.89654 0.459611 3.09876C0.375807 3.30097 0.332783 3.51775 0.333009 3.73664V25.4033C0.333009 25.8453 0.508604 26.2693 0.821164 26.5818C1.13373 26.8944 1.55765 27.07 1.99968 27.07C2.4417 27.07 2.86563 26.8944 3.17819 26.5818C3.49075 26.2693 3.66634 25.8453 3.66634 25.4033V17.815C4.7067 17.0024 6.00815 16.5979 7.32584 16.6777C8.64353 16.7575 9.88665 17.3161 10.8213 18.2483C12.4616 19.8838 14.6834 20.8023 16.9997 20.8023C19.316 20.8023 21.5378 19.8838 23.178 18.2483C23.4906 17.9358 23.6663 17.512 23.6663 17.07V3.73664C23.6664 3.40703 23.5688 3.0848 23.3857 2.81069C23.2027 2.53657 22.9425 2.32288 22.638 2.19664ZM10.8213 4.91498C12.0435 6.13312 13.5984 6.96302 15.2906 7.30046C16.9829 7.6379 18.7371 7.46785 20.333 6.81164V10.6633C19.1371 11.4203 17.7194 11.7485 16.3125 11.5941C14.9056 11.4396 13.5929 10.8117 12.5897 9.81331C10.1763 7.40164 6.59301 6.90831 3.66634 8.26831V4.48164C4.70656 3.66869 6.00808 3.26403 7.32587 3.34384C8.64367 3.42365 9.88684 3.98243 10.8213 4.91498ZM13.178 15.89C12.3669 15.0788 11.4036 14.4356 10.3434 13.9975C9.28314 13.5593 8.14686 13.3347 6.99968 13.3366C5.86468 13.3366 4.73134 13.555 3.66634 13.9933V10.1416C4.86226 9.38463 6.27991 9.05644 7.68683 9.21088C9.09376 9.36532 10.4065 9.99323 11.4097 10.9916C12.1435 11.7257 13.015 12.3077 13.9743 12.7041C14.9336 13.1005 15.9617 13.3036 16.9997 13.3016C18.1447 13.3016 19.2763 13.0283 20.333 12.5366V16.3233C19.2926 17.1359 17.9912 17.5404 16.6735 17.4606C15.3558 17.3808 14.1127 16.8222 13.178 15.89Z" fill="#747373"/>
</svg>
