<svg width="41" height="41" viewBox="0 0 41 41" fill="none" xmlns="http://www.w3.org/2000/svg">
<path d="M29.5328 1.28125L22.2937 12.1078H25.8812L33.9531 1.28125H29.5328Z" fill="#428BC1"/>
<path d="M25.8813 1.28125L18.7063 12.1078H22.2938L29.5329 1.28125H25.8813Z" fill="#E8E8E8"/>
<path d="M22.2938 1.28125L15.1188 12.1078H18.7063L25.8813 1.28125H22.2938Z" fill="#ED4C5C"/>
<path d="M20.5 39.7188C27.7884 39.7188 33.6968 33.8103 33.6968 26.5219C33.6968 19.2335 27.7884 13.325 20.5 13.325C13.2115 13.325 7.3031 19.2335 7.3031 26.5219C7.3031 33.8103 13.2115 39.7188 20.5 39.7188Z" fill="#D3976E"/>
<path d="M13.9015 9.67346C13.5812 9.67346 13.325 9.92971 13.325 10.25V15.6313C13.325 15.9516 13.5812 16.2078 13.9015 16.2078H27.0984C27.4187 16.2078 27.675 15.9516 27.675 15.6313V10.25C27.675 9.92971 27.4187 9.67346 27.0984 9.67346H13.9015ZM26.5218 13.9016C26.5218 14.2219 26.2656 14.4781 25.9453 14.4781H15.1187C14.7984 14.4781 14.5421 14.2219 14.5421 13.9016V11.4672C14.5421 11.1469 14.7984 10.8906 15.1187 10.8906H25.9453C26.2656 10.8906 26.5218 11.1469 26.5218 11.4672V13.9016Z" fill="#D3976E"/>
<path opacity="0.5" d="M9.16089 28.0594C9.16089 20.8844 14.6703 15.0547 21.7171 14.5422C21.3968 14.5422 21.0125 14.4781 20.6921 14.4781C13.9656 14.4781 8.52026 19.9235 8.52026 26.7141C8.52026 28.7 9.03276 30.6219 9.86558 32.2875C9.41714 30.9422 9.16089 29.5328 9.16089 28.0594Z" fill="#3E4347"/>
<path opacity="0.33" d="M25.5609 36.7078C31.5187 32.736 33.3125 24.9844 29.8531 18.9625L30.4296 19.7313C34.1453 25.2406 32.6078 32.736 27.0343 36.5156C25.3687 37.6688 23.5109 38.3094 21.6531 38.5016C23.0625 38.1172 24.3437 37.5406 25.5609 36.7078Z" fill="white"/>
<path d="M15.1188 12.1078H18.7063L11.4672 1.28125H7.04688L15.1188 12.1078Z" fill="#ED4C5C"/>
<path d="M18.7062 12.1078H22.2937L15.1187 1.28125H11.4672L18.7062 12.1078Z" fill="#E8E8E8"/>
<path opacity="0.5" d="M21.0766 3.07501L19.2828 5.76564L23.511 12.1078H25.8813L26.5219 11.2109L21.0766 3.07501Z" fill="#3E4347"/>
<path d="M22.2938 12.1078H25.8813L18.7063 1.28125H15.1188L22.2938 12.1078Z" fill="#428BC1"/>
<path opacity="0.5" d="M20.1797 20.1797C18.8344 20.1797 17.7453 21.2687 17.7453 22.55H16.0156C16.0156 22.7422 15.9515 22.9343 15.9515 23.1265H18.3859C18.3859 21.7812 19.475 20.6922 20.8203 20.6922C21.3328 20.6922 21.7812 20.8844 22.1656 21.1406C21.7172 20.6281 21.0125 20.1797 20.1797 20.1797ZM23.9594 26.7781C24.9844 25.8812 25.625 24.6 25.625 23.1906C25.625 21.7172 24.9844 20.3719 23.8953 19.475C24.6 20.3078 25.0484 21.3969 25.0484 22.55C25.0484 23.9594 24.4078 25.3047 23.3828 26.1375C24.4078 27.0344 25.0484 28.3156 25.0484 29.725C25.0484 32.3515 22.8703 34.5297 20.2437 34.5297C19.0906 34.5297 18.0015 34.0812 17.1687 33.3765C18.0656 34.4015 19.3468 35.1062 20.8843 35.1062C23.5109 35.1062 25.689 32.9281 25.689 30.3015C25.625 28.9562 24.9844 27.675 23.9594 26.7781Z" fill="#3E4347"/>
<path opacity="0.33" d="M20.8203 18.386C21.9734 18.386 23.0625 18.8344 23.8953 19.5391C22.9984 18.5141 21.7172 17.8094 20.1797 17.8094C17.5531 17.8094 15.375 19.9875 15.375 22.6141H16.0156C16.3359 20.2438 18.3219 18.386 20.8203 18.386ZM23.1906 23.1906C23.1906 22.3578 22.8062 21.6531 22.1656 21.2047C22.4219 21.5891 22.6141 22.0375 22.6141 22.55C22.6141 23.8953 21.525 24.9844 20.1797 24.9844V27.4188C20.3719 27.4188 20.5641 27.4828 20.7563 27.4828V25.625C22.1016 25.625 23.1906 24.536 23.1906 23.1906ZM20.8203 32.8C22.1656 32.8 23.2547 31.711 23.2547 30.3656C23.2547 29.5328 22.8703 28.8281 22.2297 28.3797C22.4859 28.7641 22.6781 29.2125 22.6781 29.725C22.6781 31.0703 21.5891 32.1594 20.2438 32.1594C19.7313 32.1594 19.2828 31.9672 18.8984 31.7109C19.2828 32.4156 19.9875 32.8 20.8203 32.8ZM17.8734 30.4297C17.8094 30.2375 17.8094 30.0453 17.8094 29.8531H15.375C15.375 31.3266 16.0156 32.6719 17.1047 33.5688C16.4 32.736 15.9516 31.6469 15.9516 30.4938L17.8734 30.4297Z" fill="white"/>
</svg>
