<svg width="40" height="40" viewBox="0 0 40 40" fill="none" xmlns="http://www.w3.org/2000/svg">
<path d="M20 0C9 0 0 9 0 20C0 31 9 40 20 40C31 40 40 31 40 20C40 9 31 0 20 0ZM33 13.25C34 13.25 34.75 14 35.75 14C35 15 31.75 15 30.75 13.75C31.5 13.5 32 13.25 33 13.25ZM2.5 20C2.5 19 2.5 18 2.75 16.75C3 16.75 3.25 17 3.5 17C3.5 17 3.75 17.25 3.75 17.5C3.75 18.25 4.5 18.75 5 18.75C7 19 7.75 20.75 9.5 21.25C10 21.5 9.75 22 9.5 22.5C8 24.5 9.25 26 10.5 27.25C11.75 28.25 11.75 29.25 12 30.75C12 32.5 12.25 34.5 13 36.25C6.75 33.25 2.5 27.25 2.5 20ZM20 37.5C18.25 37.5 16.25 37.25 14.75 36.75C14.5 36.25 14.5 35.75 14.75 35.25C15.75 33.25 16.75 31.5 18 29.75C18.5 29.25 19 28.75 19 28C19 27.5 19.25 26.75 19.5 26.25C20.25 25 20 24.25 19 24C17 23.5 16 21.75 14.5 21C13 20.25 11.5 19.75 10.25 20.5C9.75 20.75 9 21 9 20.25C9 19.25 7.75 18.5 8 17.5C7.75 17.5 7.5 17.5 7.25 17.75C7 18 6.75 18.25 6.25 18C5.75 17.5 6 17 6 16.5C6.25 16 6.5 15.75 7 15.5C8 15.25 9 15.25 9.5 16.5C10.25 14.25 11.75 13 13.25 12C13.25 12 15.25 10.25 15.5 10.25C15.75 10.25 16 10.75 16.5 11C17 11 17.25 11 17.25 10.5C17.5 9.25 16.75 7.75 15.75 7.5C15.75 7.25 16 7.25 16 7.25C16.75 7 17.75 6.5 17.5 5.75C17.5 4.75 16.5 4.25 15.5 4.25C15 4.25 14.5 4.25 14 4.5C13 5 11.75 5.5 10.25 5.5C13 3.5 16.5 2.5 20 2.5H22C20.5 2.75 19 3.25 18 3.75C19.5 4 19.75 4.75 19.25 6C19 6.5 19.25 7 19.75 7.25C20.25 7.5 20.75 7.5 21 7C21.5 6.25 22.5 6 23.25 5.75C24.25 5.5 25 5 25.75 4C25.75 3.75 26 3.75 26.25 3.5C27.75 4 29.25 5 30.75 6C30.5 6 30.5 6.25 30.25 6.25C29.75 6.75 29 7 29.75 8C30 8.5 29.75 8.75 29.5 9C29 9.25 28.75 9 28.5 8.75C28.25 8.5 28.25 8 27.5 8C27.25 8.5 26.5 8.75 26.5 9.5C27.75 9.5 27.5 10.5 27.75 11.25C26.25 11.5 25.75 12.25 26.5 13.5C26.75 14 26.25 14.25 26 14.5C25 16 24 17 24 18.75C24 20.5 25.25 22.25 27.25 22C29.5 21.75 29.5 21.75 30.25 23.75C30.25 24 30.5 24.25 30.5 24.5C30.75 25 31 25.5 30.75 26C30 28 31 29.5 31.75 31C32 31.5 32.25 31.75 32.5 32C29.25 35.5 25 37.5 20 37.5Z" fill="#747373"/>
</svg>
