<svg width="25" height="25" viewBox="0 0 25 25" fill="none" xmlns="http://www.w3.org/2000/svg">
<circle cx="12.5" cy="12.5" r="12" stroke="white"/>
<path d="M9.64592 9.64598C9.69236 9.59941 9.74754 9.56247 9.80828 9.53727C9.86903 9.51206 9.93415 9.49908 9.99992 9.49908C10.0657 9.49908 10.1308 9.51206 10.1916 9.53727C10.2523 9.56247 10.3075 9.59941 10.3539 9.64598L12.9999 12.293L15.6459 9.64598C15.6924 9.59949 15.7476 9.56261 15.8083 9.53745C15.8691 9.5123 15.9342 9.49935 15.9999 9.49935C16.0657 9.49935 16.1308 9.5123 16.1915 9.53745C16.2522 9.56261 16.3074 9.59949 16.3539 9.64598C16.4004 9.69247 16.4373 9.74766 16.4624 9.80839C16.4876 9.86913 16.5005 9.93423 16.5005 9.99998C16.5005 10.0657 16.4876 10.1308 16.4624 10.1916C16.4373 10.2523 16.4004 10.3075 16.3539 10.354L13.7069 13L16.3539 15.646C16.4004 15.6925 16.4373 15.7477 16.4624 15.8084C16.4876 15.8691 16.5005 15.9342 16.5005 16C16.5005 16.0657 16.4876 16.1308 16.4624 16.1916C16.4373 16.2523 16.4004 16.3075 16.3539 16.354C16.3074 16.4005 16.2522 16.4373 16.1915 16.4625C16.1308 16.4877 16.0657 16.5006 15.9999 16.5006C15.9342 16.5006 15.8691 16.4877 15.8083 16.4625C15.7476 16.4373 15.6924 16.4005 15.6459 16.354L12.9999 13.707L10.3539 16.354C10.3074 16.4005 10.2522 16.4373 10.1915 16.4625C10.1308 16.4877 10.0657 16.5006 9.99992 16.5006C9.93417 16.5006 9.86907 16.4877 9.80833 16.4625C9.74759 16.4373 9.6924 16.4005 9.64592 16.354C9.59943 16.3075 9.56255 16.2523 9.53739 16.1916C9.51223 16.1308 9.49929 16.0657 9.49929 16C9.49929 15.9342 9.51223 15.8691 9.53739 15.8084C9.56255 15.7477 9.59943 15.6925 9.64592 15.646L12.2929 13L9.64592 10.354C9.59935 10.3075 9.56241 10.2524 9.5372 10.1916C9.512 10.1309 9.49902 10.0657 9.49902 9.99998C9.49902 9.93421 9.512 9.86909 9.5372 9.80834C9.56241 9.7476 9.59935 9.69242 9.64592 9.64598Z" fill="white"/>
</svg>
